<mxfile host="65bd71144e">
    <diagram id="4C1UIdwVyl4sEyu4sHzy" name="Page-1">
        <mxGraphModel dx="906" dy="658" grid="1" gridSize="10" guides="1" tooltips="1" connect="1" arrows="1" fold="1" page="1" pageScale="1" pageWidth="850" pageHeight="1100" math="0" shadow="0">
            <root>
                <mxCell id="0"/>
                <mxCell id="1" parent="0"/>
                <mxCell id="2" value="Private subnet ca-central-1b" style="points=[[0,0],[0.25,0],[0.5,0],[0.75,0],[1,0],[1,0.25],[1,0.5],[1,0.75],[1,1],[0.75,1],[0.5,1],[0.25,1],[0,1],[0,0.75],[0,0.5],[0,0.25]];outlineConnect=0;gradientColor=none;html=1;whiteSpace=wrap;fontSize=12;fontStyle=0;container=1;pointerEvents=0;collapsible=0;recursiveResize=0;shape=mxgraph.aws4.group;grIcon=mxgraph.aws4.group_security_group;grStroke=0;strokeColor=#248814;fillColor=#E9F3E6;verticalAlign=top;align=left;spacingLeft=30;fontColor=#248814;dashed=0;" parent="1" vertex="1">
                    <mxGeometry x="580" y="150" width="200" height="230" as="geometry"/>
                </mxCell>
                <mxCell id="3" value="VPC" style="points=[[0,0],[0.25,0],[0.5,0],[0.75,0],[1,0],[1,0.25],[1,0.5],[1,0.75],[1,1],[0.75,1],[0.5,1],[0.25,1],[0,1],[0,0.75],[0,0.5],[0,0.25]];outlineConnect=0;gradientColor=none;html=1;whiteSpace=wrap;fontSize=12;fontStyle=0;container=1;pointerEvents=0;collapsible=0;recursiveResize=0;shape=mxgraph.aws4.group;grIcon=mxgraph.aws4.group_vpc;strokeColor=#248814;fillColor=none;verticalAlign=top;align=left;spacingLeft=30;fontColor=#AAB7B8;dashed=0;" parent="1" vertex="1">
                    <mxGeometry x="280" y="60" width="880" height="750" as="geometry"/>
                </mxCell>
                <mxCell id="5" value="&lt;span style=&quot;color: rgba(0, 0, 0, 0); font-family: monospace; font-size: 0px; text-align: start; background-color: rgb(251, 251, 251);&quot;&gt;%3CmxGraphModel%3E%3Croot%3E%3CmxCell%20id%3D%220%22%2F%3E%3CmxCell%20id%3D%221%22%20parent%3D%220%22%2F%3E%3CmxCell%20id%3D%222%22%20value%3D%22CloudTrail%22%20style%3D%22outlineConnect%3D0%3Bdashed%3D0%3BverticalLabelPosition%3Dbottom%3BverticalAlign%3Dtop%3Balign%3Dcenter%3Bhtml%3D1%3Bshape%3Dmxgraph.aws3.cloudtrail%3BfillColor%3D%23759C3E%3BgradientColor%3Dnone%3B%22%20vertex%3D%221%22%20parent%3D%221%22%3E%3CmxGeometry%20x%3D%221050%22%20y%3D%22600%22%20width%3D%2240%22%20height%3D%2240%22%20as%3D%22geometry%22%2F%3E%3C%2FmxCell%3E%3C%2Froot%3E%3C%2FmxGraphModel%3E&lt;/span&gt;" style="rounded=0;whiteSpace=wrap;html=1;fillColor=none;fontColor=#ffffff;strokeColor=#0000FF;dashed=1;strokeWidth=3;" parent="3" vertex="1">
                    <mxGeometry x="40" y="335" width="830" height="375" as="geometry"/>
                </mxCell>
                <mxCell id="4" value="Security group &#10;ports 22, 27025 &amp; 31415" style="fillColor=none;strokeColor=#DD3522;verticalAlign=top;fontStyle=0;fontColor=#DD3522;labelPosition=center;verticalLabelPosition=bottom;align=center;" parent="3" vertex="1">
                    <mxGeometry x="70" y="345" width="660" height="265" as="geometry"/>
                </mxCell>
                <mxCell id="6" value="Availability Zone 3" style="fillColor=none;strokeColor=#147EBA;dashed=1;verticalAlign=top;fontStyle=0;fontColor=#147EBA;" parent="3" vertex="1">
                    <mxGeometry x="500" y="40" width="240" height="580" as="geometry"/>
                </mxCell>
                <mxCell id="7" value="Availability Zone 1" style="fillColor=none;strokeColor=#147EBA;dashed=1;verticalAlign=top;fontStyle=0;fontColor=#147EBA;" parent="3" vertex="1">
                    <mxGeometry x="60" y="40" width="240" height="580" as="geometry"/>
                </mxCell>
                <mxCell id="8" value="Private subnet ca-central-1a" style="points=[[0,0],[0.25,0],[0.5,0],[0.75,0],[1,0],[1,0.25],[1,0.5],[1,0.75],[1,1],[0.75,1],[0.5,1],[0.25,1],[0,1],[0,0.75],[0,0.5],[0,0.25]];outlineConnect=0;gradientColor=none;html=1;whiteSpace=wrap;fontSize=12;fontStyle=0;container=1;pointerEvents=0;collapsible=0;recursiveResize=0;shape=mxgraph.aws4.group;grIcon=mxgraph.aws4.group_security_group;grStroke=0;strokeColor=#147EBA;fillColor=#E6F2F8;verticalAlign=top;align=left;spacingLeft=30;fontColor=#147EBA;dashed=0;" parent="3" vertex="1">
                    <mxGeometry x="80" y="80" width="200" height="240" as="geometry"/>
                </mxCell>
                <mxCell id="9" value="jumpbox" style="outlineConnect=0;dashed=0;verticalLabelPosition=bottom;verticalAlign=top;align=center;html=1;shape=mxgraph.aws3.ec2;fillColor=#F58534;gradientColor=none;" parent="8" vertex="1">
                    <mxGeometry x="80" y="90" width="40" height="40" as="geometry"/>
                </mxCell>
                <mxCell id="10" value="Private subnet (DB Subnet)&amp;nbsp; &amp;nbsp; &amp;nbsp;ca-central-1c" style="points=[[0,0],[0.25,0],[0.5,0],[0.75,0],[1,0],[1,0.25],[1,0.5],[1,0.75],[1,1],[0.75,1],[0.5,1],[0.25,1],[0,1],[0,0.75],[0,0.5],[0,0.25]];outlineConnect=0;gradientColor=none;html=1;whiteSpace=wrap;fontSize=12;fontStyle=0;container=1;pointerEvents=0;collapsible=0;recursiveResize=0;shape=mxgraph.aws4.group;grIcon=mxgraph.aws4.group_security_group;grStroke=0;strokeColor=#248814;fillColor=#E9F3E6;verticalAlign=top;align=left;spacingLeft=30;fontColor=#248814;dashed=0;" parent="3" vertex="1">
                    <mxGeometry x="520" y="360" width="200" height="230" as="geometry"/>
                </mxCell>
                <mxCell id="11" value="Private subnet (DB Subnet). ca-central-1a" style="points=[[0,0],[0.25,0],[0.5,0],[0.75,0],[1,0],[1,0.25],[1,0.5],[1,0.75],[1,1],[0.75,1],[0.5,1],[0.25,1],[0,1],[0,0.75],[0,0.5],[0,0.25]];outlineConnect=0;gradientColor=none;html=1;whiteSpace=wrap;fontSize=12;fontStyle=0;container=1;pointerEvents=0;collapsible=0;recursiveResize=0;shape=mxgraph.aws4.group;grIcon=mxgraph.aws4.group_security_group;grStroke=0;strokeColor=#147EBA;fillColor=#E6F2F8;verticalAlign=top;align=left;spacingLeft=30;fontColor=#147EBA;dashed=0;" parent="3" vertex="1">
                    <mxGeometry x="80" y="360" width="200" height="240" as="geometry"/>
                </mxCell>
                <mxCell id="12" value="Private subnet ca-central-1d" style="points=[[0,0],[0.25,0],[0.5,0],[0.75,0],[1,0],[1,0.25],[1,0.5],[1,0.75],[1,1],[0.75,1],[0.5,1],[0.25,1],[0,1],[0,0.75],[0,0.5],[0,0.25]];outlineConnect=0;gradientColor=none;html=1;whiteSpace=wrap;fontSize=12;fontStyle=0;container=1;pointerEvents=0;collapsible=0;recursiveResize=0;shape=mxgraph.aws4.group;grIcon=mxgraph.aws4.group_security_group;grStroke=0;strokeColor=#248814;fillColor=#E9F3E6;verticalAlign=top;align=left;spacingLeft=30;fontColor=#248814;dashed=0;" parent="3" vertex="1">
                    <mxGeometry x="520" y="90" width="200" height="230" as="geometry"/>
                </mxCell>
                <mxCell id="13" value="Mongodb-1 Primary" style="outlineConnect=0;dashed=0;verticalLabelPosition=bottom;verticalAlign=top;align=center;html=1;shape=mxgraph.aws3.ec2;fillColor=#F58534;gradientColor=none;" parent="3" vertex="1">
                    <mxGeometry x="160" y="450" width="40" height="40" as="geometry"/>
                </mxCell>
                <mxCell id="14" value="Mongodb-3 secondary" style="outlineConnect=0;dashed=0;verticalLabelPosition=bottom;verticalAlign=top;align=center;html=1;shape=mxgraph.aws3.ec2;fillColor=#F58534;gradientColor=none;" parent="3" vertex="1">
                    <mxGeometry x="590" y="450" width="40" height="40" as="geometry"/>
                </mxCell>
                <mxCell id="15" value="EBS - data volume" style="outlineConnect=0;dashed=0;verticalLabelPosition=middle;verticalAlign=middle;align=right;html=1;shape=mxgraph.aws3.volume;fillColor=#E05243;gradientColor=none;labelPosition=left;" parent="3" vertex="1">
                    <mxGeometry x="160" y="531" width="40" height="40" as="geometry"/>
                </mxCell>
                <mxCell id="16" value="EBS - data volume" style="outlineConnect=0;dashed=0;verticalLabelPosition=bottom;verticalAlign=top;align=center;html=1;shape=mxgraph.aws3.volume;fillColor=#E05243;gradientColor=none;" parent="3" vertex="1">
                    <mxGeometry x="590" y="530" width="40" height="40" as="geometry"/>
                </mxCell>
                <mxCell id="17" value="KMS" style="outlineConnect=0;dashed=0;verticalLabelPosition=bottom;verticalAlign=top;align=center;html=1;shape=mxgraph.aws3.kms;fillColor=#759C3E;gradientColor=none;" parent="3" vertex="1">
                    <mxGeometry x="750" y="360" width="40" height="40" as="geometry"/>
                </mxCell>
                <mxCell id="18" value="MonogoDB AMI" style="outlineConnect=0;dashed=0;verticalLabelPosition=bottom;verticalAlign=top;align=center;html=1;shape=mxgraph.aws3.ami;fillColor=#f0a30a;fontColor=#000000;strokeColor=#BD7000;" parent="3" vertex="1">
                    <mxGeometry x="775" y="100" width="40" height="40" as="geometry"/>
                </mxCell>
                <mxCell id="19" style="edgeStyle=orthogonalEdgeStyle;rounded=0;orthogonalLoop=1;jettySize=auto;html=1;entryX=0.5;entryY=0;entryDx=0;entryDy=0;entryPerimeter=0;" parent="3" source="9" target="13" edge="1">
                    <mxGeometry relative="1" as="geometry"/>
                </mxCell>
                <mxCell id="20" style="edgeStyle=orthogonalEdgeStyle;rounded=0;orthogonalLoop=1;jettySize=auto;html=1;" parent="3" source="9" target="14" edge="1">
                    <mxGeometry relative="1" as="geometry">
                        <Array as="points">
                            <mxPoint x="180" y="280"/>
                            <mxPoint x="610" y="280"/>
                        </Array>
                    </mxGeometry>
                </mxCell>
                <mxCell id="21" value="CloudWatch" style="outlineConnect=0;dashed=0;verticalLabelPosition=bottom;verticalAlign=top;align=center;html=1;shape=mxgraph.aws3.cloudwatch;fillColor=#759C3E;gradientColor=none;" parent="3" vertex="1">
                    <mxGeometry x="760" y="510" width="40" height="40" as="geometry"/>
                </mxCell>
                <mxCell id="22" value="CloudTrail" style="outlineConnect=0;dashed=0;verticalLabelPosition=bottom;verticalAlign=top;align=center;html=1;shape=mxgraph.aws3.cloudtrail;fillColor=#759C3E;gradientColor=none;" parent="3" vertex="1">
                    <mxGeometry x="760" y="580" width="40" height="40" as="geometry"/>
                </mxCell>
                <mxCell id="42" value="EBS Snapshot" style="outlineConnect=0;dashed=0;verticalLabelPosition=bottom;verticalAlign=top;align=center;html=1;shape=mxgraph.aws3.snapshot;fillColor=#E05243;gradientColor=none;" vertex="1" parent="3">
                    <mxGeometry x="220" y="630" width="40" height="43.5" as="geometry"/>
                </mxCell>
                <mxCell id="43" value="" style="shape=flexArrow;endArrow=classic;html=1;edgeStyle=orthogonalEdgeStyle;fillColor=#66B2FF;" edge="1" parent="3" target="15">
                    <mxGeometry width="50" height="50" relative="1" as="geometry">
                        <mxPoint x="210" y="660" as="sourcePoint"/>
                        <mxPoint x="260" y="610" as="targetPoint"/>
                        <Array as="points">
                            <mxPoint x="180" y="660"/>
                        </Array>
                    </mxGeometry>
                </mxCell>
                <mxCell id="23" value="Availability Zone 2" style="fillColor=none;strokeColor=#147EBA;dashed=1;verticalAlign=top;fontStyle=0;fontColor=#147EBA;" parent="1" vertex="1">
                    <mxGeometry x="560" y="100" width="240" height="580" as="geometry"/>
                </mxCell>
                <mxCell id="24" style="edgeStyle=orthogonalEdgeStyle;rounded=0;orthogonalLoop=1;jettySize=auto;html=1;" parent="1" source="25" target="27" edge="1">
                    <mxGeometry relative="1" as="geometry"/>
                </mxCell>
                <mxCell id="25" value="SLF Golden Image" style="outlineConnect=0;dashed=0;verticalLabelPosition=bottom;verticalAlign=top;align=center;html=1;shape=mxgraph.aws3.ami;fillColor=#e3c800;fontColor=#000000;strokeColor=#B09500;" parent="1" vertex="1">
                    <mxGeometry x="1400" y="160" width="40" height="40" as="geometry"/>
                </mxCell>
                <mxCell id="26" style="edgeStyle=orthogonalEdgeStyle;rounded=0;orthogonalLoop=1;jettySize=auto;html=1;" parent="1" source="27" target="18" edge="1">
                    <mxGeometry relative="1" as="geometry"/>
                </mxCell>
                <mxCell id="27" value="Packer" style="rounded=1;whiteSpace=wrap;html=1;" parent="1" vertex="1">
                    <mxGeometry x="1200" y="160" width="120" height="40" as="geometry"/>
                </mxCell>
                <mxCell id="28" value="" style="shape=image;verticalLabelPosition=bottom;labelBackgroundColor=default;verticalAlign=top;aspect=fixed;imageAspect=0;image=data:image/png,iVBORw0KGgoAAAANSUhEUgAAAHYAAAB3CAYAAADW+7S0AAABV2lDQ1BJQ0MgUHJvZmlsZQAAKJF1kDtLw3AUxU9qpRjFBzg6BBcfVJFYUKRLLb5AIVSl2i1Jayqk8U8SH4VORRDBWVcH8ROoXXVzF1R0cvELCF20xPtP1bSKFy7nx+Hcy+UCobDKmBkGULBcOzU3La2tZ6TIK0S0IYQYplTdYQlFWaQIvrW5qvcQuN6N8F1psXwQ3y/P2PLs4dJzqf9vvqnEbM7RST+oh3Vmu4AwSKzsuozzHnGvTUcRH3E26nzKWavzhZ9ZSSWJb4m79byaJX4kjmoNvtHABXNb/7qBX9+Rs1aXSTup+zAPBRJkTGAHlPonG/OzSWyBoQgbmzCQh0uTCXIYTOSIF2DRjlFE/Y1j1DL/8e/fBZ5ZBCbPgNBJ4GkvwOUV0JUJvIES0HMO3MSZaqs/HxWqYWdjXK5zewVoPfa8tzQQGQJqD573XvG8Gs21PAHX1U+9MmF5w04W3wAAAGJlWElmTU0AKgAAAAgAAgESAAMAAAABAAEAAIdpAAQAAAABAAAAJgAAAAAAA5KGAAcAAAASAAAAUKACAAQAAAABAAAAdqADAAQAAAABAAAAdwAAAABBU0NJSQAAAFNjcmVlbnNob3SHl3dFAAACPWlUWHRYTUw6Y29tLmFkb2JlLnhtcAAAAAAAPHg6eG1wbWV0YSB4bWxuczp4PSJhZG9iZTpuczptZXRhLyIgeDp4bXB0az0iWE1QIENvcmUgNi4wLjAiPgogICA8cmRmOlJERiB4bWxuczpyZGY9Imh0dHA6Ly93d3cudzMub3JnLzE5OTkvMDIvMjItcmRmLXN5bnRheC1ucyMiPgogICAgICA8cmRmOkRlc2NyaXB0aW9uIHJkZjphYm91dD0iIgogICAgICAgICAgICB4bWxuczpleGlmPSJodHRwOi8vbnMuYWRvYmUuY29tL2V4aWYvMS4wLyIKICAgICAgICAgICAgeG1sbnM6dGlmZj0iaHR0cDovL25zLmFkb2JlLmNvbS90aWZmLzEuMC8iPgogICAgICAgICA8ZXhpZjpQaXhlbFlEaW1lbnNpb24+MTE5PC9leGlmOlBpeGVsWURpbWVuc2lvbj4KICAgICAgICAgPGV4aWY6VXNlckNvbW1lbnQ+U2NyZWVuc2hvdDwvZXhpZjpVc2VyQ29tbWVudD4KICAgICAgICAgPGV4aWY6UGl4ZWxYRGltZW5zaW9uPjExODwvZXhpZjpQaXhlbFhEaW1lbnNpb24+CiAgICAgICAgIDx0aWZmOk9yaWVudGF0aW9uPjE8L3RpZmY6T3JpZW50YXRpb24+CiAgICAgIDwvcmRmOkRlc2NyaXB0aW9uPgogICA8L3JkZjpSREY+CjwveDp4bXBtZXRhPgrb+ttgAABAAElEQVR4AcS9BYBd13Xvve4wM4MGxAwWWEZZlu1YxrATN3ZSJ23SJH55TV9SCLVp8yVN3DrsgClODDHIKMmWQbYFFjNLMxrNjGCYGb7ff597Zq6kEdlKu2fOPbxhrb3WXrT3CXRv3T0YVZBnlpxoZgGzMHY2ENw4dxe0Vxr0dtoH2Ab98+Bz/mPKJzB0EnznPHfK0n+V/Af6+y0sIsJ7mfP+7i5rqK21yuPHbPf+/bZm8ybbtWu3VR04ZI319TYwMGCDA4PUkD9XPdVzOM8A9QqEhVkYW0pGlk0cO96uuHS+XXbppVZYWGAZGZmWmJbs7rtC+4BFJEAhXyNfC1defgW9av3lflXOKWWpLYPUpa/frLfXrKfP+pqarWPlanvoO9+391qO2wO/+jno6esfFO4G+OsZJJOwcE4Hyc6DRoBrDtecD3BbV71fPaNiA64beBXwKqFucWrynj316snnQkbEUMnD9wbAUEtri23bstl2bt9u77zzji1f/qr19w/Qvn6HfIdQD5NDL2akpVoWiOrs7rGaulprb28fuqcDITmM9kZEsIVHWG5ugd166602d948mzlzppWWjLKIyAg6CB3K5T1Ap1CLvXaelNnQiQetoVMOPJiFXrnwY8HUz0cluP4lBAMDh5jWTuvdW24nlr9i3/r1/SBWteYVvdgfBGoYZ17VhWIvCdFqkH+uqz6ydE3v+0nHpzb99Ob6T3s8Qe/4WxTHqlZ9R5tVHj5s69a8Z68uW2rLly6FcOiHUFtMfLz19PRYZ1uby6gwL9uuv+Zymzp1mhXk51t6RrqlpKRYXFwchDZobeTV3tpqTQ0N1tjcYtXHa2w/VL7ijXfs2PETLg8hOjycjk3+cy6Za3d++g676eabLTs3xyKj1OW8NOgoVi0acJ3ea/vILfTuee+FHgezOudOufrl6n0f/romYhSsAkIuHdR62dfWWTtwCvQ4xOplveJl4SFRmfiI1D2dhQWf4NRd8ZDhvxlaAf9Yz43cZN05+Z7e6WPr6u22Q2Vl9ucnn7If/tv39ZhDdGRkpGVlZVl3b4/Vnqhx10uLRtlf3/lJu+G6q2zc2BJLTE83i4qiseSkBjskaE8tOVZdXTu7+mDdDXYMQBw+UmkbN261p5951vaVV8EFaCvPalu0cKF99atftkXXX2/R0dHu7WHEqv4C75lbSMlDKfR46OI5Ds6EWLVDJQtmka78AaiYp0WnrR0W6A0iVohzDXYFec33znXsnXvZhKLMPTz0ozsj3T3T9X7yDecN/52Ork7buWOnvfLSS/bggw/a8ePHLT4h3m6EamZPn2G1x47bkuefs0MVR6yoMM/+9nOftltvvsnGjh9tkbH02L5uqgr43Oa3Yaj6Q/V0B+GRVJaS9az2jFeN9U22ZdsOW/76Snvo8RetobHFdSg9/51v/aN94o47bMLEiTYY5o35jNRDecKsgy0ZvubfFEK1nQkO/nNn2vvwCWlR8FFPllDH0jO0SCzYoSvA2OGeR+TQ5aEX3N3gmbfz6Pj0zIcfGqniI13z3xAIVHwbCD144IA99/Qz9oMf/MBiYmLscgSam2+52abOmGHp6WlWh7D04pIl9vxLL9sX7r7DbrnpehsPQqMTYslF1CmkIlAMsDHuumO1SRXWJsFHApDX3OCe2qmCjJvGWGoBNhDe1dZlW7bvsRVvrbKf/+5xq29odvW8++7P2Ne+/jWbPHm6YzVhgx4SRdke6tidliSDeJxCT11o0jv+e2qGf+zlI8R6Mo7uadzVJsEqBLG64ic9pi00hRYRen34+FxPnFwpEUmvbUMYemXpK/bv//pvFh0TbdNnTLO/+9Lf2eRJkxgfY626utpWrHjd7r//pzZx3Bi7/8ffs0sumWHxKQkehcKWLYy69rPvQ0rs1wZioSDXBr8pQcT6eB1CsJDCfz9I19gaFgA0EfT9yGhra2mxzVu32d1f/YEdram3nt4+W7RogX37e/9qc5GiY8KjKEWyZ4C9aHKkdC6ojPTO8LXzedtvovbiJe6dYYodzsxDqh4LTecu4mxP6J6f+gF8d3e3PfHkk3bvvfc69iFAffaezyK0XIIAE2Z79+62lW+8YS+++JLjll//yhfso7ffYjmjcqkeSOvtpAUAU4jsgVr7QCxsdRCKHRiEgjn2eAyPSdp3zfVr4J8O10rvBRBABhibnZBIDwhjTBc17y9rsPt++bg98eIr1treYRMnTrD7f/ZTu/rqqywqMobMPOFT9HN6GqHs0x8645XzfdtHrniItv8xivUrKCrdsn2bPfaHx+z3v/udY7v/8u1v2XWLrrOE5AQ7ghS8atU7tmL5clu3bpONKS22++/7vl2BChKbEEeVQaQoEwHLjakgdhBkDILsQahumDFxjMAkmckh1W+5TpUc+wxBhDqLq6R+gteDu/5AvFXVddovfvuY/eaPT1trW7ulpSXZI48+ah+6YbFFRkZBrwOOel3eyt5lpjO/5f6dC9uf7W03lJFdSCvcsc7/RxErpL6NDvrDH/7QNqxbZ0Ulxfad737X5kOtbQDr9Tdesy1btlgt4+nbK9+xa6+cY9/4f/9gs2ZOs6gImijgq+qizp4uGxSCuRYYALEOrEJkELkOo36TeVdK+Ekg4FyXhhAgVsrzXk/QjWASHUZbf3icHT7abL/67eP22z89ae0dnQjfUfbyKy/YgquvZWgO5zmPZh1gh/JVIa4gP8ML2p/tbd3zW+hnqlZoc4jVzZMfOP2KV7mzV/BclVi3fp19/etfd5LvDR+6wb7yla/auHHjrOzgQVu2bJlt377DYmOj7GhlhY0vLbJ//Mbf2+iJ46kprLUH1itqZUwdgI0Lqc6QokFTrDfABnK9sZOmDSGWWokVn9xANZ3/kBqfhlA9IpFStIiaE4i28LgUO1hx3H70k1/aE0uWWWdXl82fP8d+ct9PbM7sOQwhUTyv8VYdUHkrhZThXbig33O9fSqmdC7ESuw4vc0XVPT5PdyGIeHhhx+xfXv32o03LbavMraOHTvG9uzaZU8++YTt3LnTEhOTrQYVpyA7y77xD//XRo8ucZTpECuW29Vu/e2tNgCSpT8qOdDTeoc3fywdQhjMyl3jQUHIPRVs8RDidc+9rQeGkhAkZUzaIYMvZk0pE4M2Znwpqs8/2W2Lb3HmSw0XP0WwU739cV3ClCtuKLf3f3Am/Oi6IBBa89AyHWJPL1aP+MOwvw997cxv6Cl/89/U2LcUinwedWXi1Ml2x6c/iVUoyVa++Yb95je/tjdfX2ENWIT2Yvs9ePCQffmL99jYiWOpORQqabcTfbIThHZDtVwLl9BEk7AjwCKhEEyCgwFsMFDVYDhbmI499WUwAELc5iFISBreqOlpSFXt4QV0iEAY7/aHw2YZ2+OTrBXFv+pwpXXDhj90wzUWj9Te19dnL7241J59+inr6upw9fLa73W8kQUqHruA5CNROfpbKEKV1akwl3R8UZIyHilJAq5EZVmKmautrdUyMzJs29btAOJZe+rxJy0BA0RcbJw1tbQ5g8QX7/mMzZ09E7yBVLFXIba3A6JFWEJyDQsioo8mDiCxRmJa7AMJTU2YDBubHHAjGY8T0W/jYqJQYQIWAS7VyfzkCNo/OWnvgUfUGoZkPkjPCYdS1VkqscO+8MoKe2fNOjte12CJqVlWMmqUHThUBuX222N/fNyuve4GmzhpqhPaTgX8ScX8BU5Ohf9FQ+xIde1iLNy3f589g6nuZaxJHZ0dCEVv2+p3VllSYhKK/iRbdM01VlJaAsWF23e+822rxXMzIOFILFAUK7UGpDo1P4hUyUED3Eaisob2TjrKHlvz3hYrP1xhrXg6khPjbc6MSXb1ZZdYQV4WyFWPdr6Okarprvkc239AXIZ/C0dAaqPT/O7hx+3p5W+TCxwCRFYcb8AsW2cpiYku770HymzNqnettLTUomJlNPHTqSD3r/9l938RxKopPQg56zdusJ//7Oe2DGptZ4xNw46bm51jH7p5sdNXi0cVWVLQmF/X0GRTJk+1ZStWWjXCU2kyQlM3lNqD3ZPxVaOW/iTKDKJvDuLKk/H+5aUr7bEnX7aduw9ZemqixUTHQDEBq8cGnJ9NeTmZQZRSqxFhHEpbOhZts4dlD8rcyHFrc4PFRoXbv3/jy5aUnGLtCE21tfX28rLltqus0ioqjtIBIpGQl9pC1LaS0WN4yxegQnkF2f0PpYuGWIHEh5vMhPsPHLRf/fKX9tqrr1oH7rLCUYV220c/bDfeeCM+zwzr7uy0ysojdvzoMWuUxwW7rHyvcr/VnjhhpRNLQWoXrFhIlcQrAGmcZIf57xiAfQQqeuqZFdYD+S6+9lK7av4Uy87Mxn3qzOFWlJ9n0ZgIwyTdSnrWu6roSSl4feiakKkHEZvg4YMYP7LSEuyrX/g07DfN1U8dqxMnwrULL7V3Yc0//uVjtnvfIbjGRtq9z4pKR5GF8hBb+d9JFxWxAonA39beZk8//TRC0RvOwjR6zBi75/OftxsW3+DON2/ebPt277HamhMYjXrAEy4x7K7yHnmJPfbOQRANaLnE5qgHmo3A1NfaZcuWLLcnnnrFikaNtk/cer0tvGYu3CAV7ozAw+Py1YYDXG1yvAvMZ0vDOPdbwXvBMiPCB5HYybevlbx5ko4Ug/O9JD/Tsm+5HkEwzb75r/fZMcyO7777rl19zQKLihY79ttztpL/MvcuGmJVPdcMKOMA1PrSCy+48TInN9f+5m//xq6/4QarOlrlGr5v3z6AMwBworDaRDofaABgdXf2ODYaEYXeCGLkqXAI0Y8oQCwYa+jBPfvspaXv2tjR4+zrX0LYmjvDEvDuDCJoBYzxmUcjXNQD78ERNb56FKRO4idlqnP2omb2KmLYxCBDh87F/vmVZYsLYfhrhXC59gYQ8OJjYu0aDCn/50t/Zd/49n/aJtx/Lc2dlpGVxNv/e+midin19V6oTDppU1OTa5UMEVdecSXjUIUtfeUVO4QxIhqBRA5wQU4RCQJmL2bBE7U1lpGabPHx9HYQH3Q8kY9ArIcZu2HPe/cfsKpjtfbXH19MSMtMS4hDcgWp3ob0jKdnEKFr0Alh1ErSk3PTqR8H8zppLzBwXZgbxJEo7qG+wB/Vc53NOw5zzgIZLsKkKPJQP/WOi4vCbnypTRhXyFi/16lscu57yd8HT/+HdhcVsWqCJF8hsaOjA3dbul06d571o+utfOstlPgTsMYwCwfQGkvVEfROGNf6AFDV0Qr8rpMsGSHIScSilSA1OTzoHKSlJEcxps6zBVfNtpgoOgYIlBFfDnBv8yhNxxJh5Nhxei1+VMnGuuZRppCscVCbQMEmcVvuOFcuL4JsIVp+EydXU9d+romKpUcPQsH9UHBWVprzDSuq4zDtp3leGeSjP7V1pE1V+0uki8aKVUGBpwldcs+ePeisbTYDX2pBQYEdOnTITuAkVwSCEEo7HTI93i1kcAngKMhsAibE2NgY7PywVQHXGSPcAw5D0knnzJxk0yeNJvwlGYRiJ4ZLOAABdCV3DKnJwCDzcjOhMJEIXNKZhTzl6yFWT0Ohjjz1lt4RiXJMRxlO6gCqg3a8yaGc2xWVVZaemWexiQkWjZGkuKjIta+Lzh3OuOzeUWfzeuVwdsEjPfGXSh4kLlLuqmhzc7NjtwocS01NdZaZw4cPuwYLaE7xF4QEK9KAxisEpb4ebL8AYcqkyY5VS0L2BCbvOb0gCpTPNANOoA4jXXNQ4S/ck+A17J4TMGkaunEAFnwQ9n+Acb0PJ4RDkTBDEsA97VZg4BrV6uqlLi6kRteC1/Ww7lO+23McwdgqX+1OTKLqWJH0uNTkJNrZb81N9Zi0e1Qj9xea03AOXk4u67/Aj8r8wEmVVUbNBIsdLDvkpGJlqsCwVq7JXKjkj5n+XoB0G7uujnaLQ2gaN7rUIrH6uCFMwHRbEMBOutW4B0JEdUKsMvAfYy8dNsD74XCHAIaCsLh4a2nrsMNYiJoxXuhZMVIvfz0fZJC8J4Ru2rzFDh4qd3FhkK97fsAJSqqqZzMOxwkfRpSHbr62YoV1EigXHo4wiGgQx+Xjx6uCEZFeA1X7YAtcVTl1SdX+SyWVd8HJh6OaqmMBuQ4rzHPPL7FHH3nUGggSE1JlThTlau+i/wCUnhfV8ZJjey6cE0puI7x0fHGxZaamOKALaervbrxzYPEpcri6jh4cFQlBnPnHlA3v9cJdiMoowmBQdqQOpO1ivA+ybeWudzTyURclIVbCz9vvrrb2ToQwx9qpg/KF+p39mDDVMDAYoONMnDzFVqPH7t6zm3wGLSE+3ArzE+3w4UN06HbV3l2nAHc8EnJdwX+BnwtGrFdZrwd6Lw9iATpmDz/ysP3XT35CGMtrLqREz8n/2oWVRgD0ES1pUcJSuHTXYIPEvmSZmj55ssWCCA1zLm9Ypv48wIsyPcYpcLnrIwDEUbBDFAhz4+SAFZSUWERskq1bv9XKyqqQbEGSQmBCE0gNB2nZuXn22rtbMDSUByVg6oKvNUz+YFE3Q4dDNMLU6JLxeKgm2wMPL0HF6cJMmo4DPtN27T6AC3Krs42H1tNvr79X8aHHodX5oMfnjVhVwN/0ko61P1ZdZY8+/LD9+he/sMM791hKRJTFQjESUCQhipo1hgrBQl47oSXdGCU0pnp50Jt5xpkc09KcxOx6eJD6KCKYPKrygOpfUz2CoAPpTgiCOvS+q6HyIO8Y7NILrr3Kjja22eNLXrMD5dXWTYS/BCDXClEmz0nAKioutt3ltbZ0xUqrV5Qi+TuJexA/MJJYN/XubOuxphMtHAfssvkL7eUVG2zt6q20IxbnQ7qVk/9vf/MbgtqXgXDYv2spu//BdEFSsRDhJNVgBY8cqXCU+uCDD1tbZbXNTMiwHGzBx3GzbccB0NTU6FSfffvQO6sqHKLFekW9EoDSM1JRXZLwvgSIHcJMB9tG+qAQGdp7LcKXiFWwQ5ZXsDsN1sG7AyLdv+gVE0UPpklcfIFwTQ8hwgJrVfHo0VY0boK9vPx1KDDKPnvHzTgIMnhPufGyaxzUXZBtCy6bYcve2mBTp0y16xdeZnHRmCV5pAMz4qp1G+xwVR1jcAQB6J22FoOEhLI1azZaZu5oS07CXErbN/BcK9J4V3uX3XLbbZaMjdnVjraR1Wmo1rWLmS4Ysa5walGFnffhhx60hx562HoxFsxNzLJ5mfkWm5JqG1BVKtEZj1dVOgdADQb5lpZmS4mPsz4Q14o/s4aA70S8MNOmTmIaRrplZ2XbOxvWY2DvsORBGS8oBCoaFCU6MJy56QKVE6YAmqiw/PARe+2NdZgrB23i+DEWl5Rk/Q5/vVYHFW7YssNuvf4KK8zLDMKSvMX/6Uhp6cl2J4aPZSs32H/99ilLYZrI5XNmEZuFqoajf9O2PfbIk0upV4R1d3VbbWOj3Ubk4oxp03E/xtNJo5wZMxYusAup+YEHfsMUkkhbTGx0YlKC13/4FZKV9KsWXux0QYhV4arCsaPV9sgjj9hDDz9q7VXVdkVMps3PyrfipBQ7inG/HUoNI3SlqaEbA0K0XXfVFYTAQDFMw+hiLNtXVoEgs9U2bNyE1yTKouCE6ZkZtmrjZjtSXWk5WaOdWkQvcADw+viZEeuBB0pHJ1Wsb2N9i7329jrbtLPMRuXnWDR6sXJqamqxcAwh0whjTfYnoTmY8qPwGvyBUsem0Nnu+Ohi+/VDf7b/uP9h+8n30mz6tEkuPPbKK+ZYHfk0NbRYUlKy5eXm27WXXcoshFJrbO9zgmIUSC2IjrIqrGSbtm6x3//+dy6UVjbkJDhUgPuhqDxbywTz95POC7GqhF+RGsx+f3jsD/b7hx6yuspKuzQu1Ram5dmYhFTrwRNTfawaH2mbNSMJz5k7yz7+kdvtqgVXW35mOlJjrA3iVqtt7rBtm7bYj37837Z5y0aLB7NTps6yNObabN62zWZMGcWcFNEpQg52InFLbwg4Mwh8qlZccFFRiX34tpstr3gv7L0L1twLYgect2c6npcbF11hOblZ4BFhLKjTijtoG4DbxFLHz975Eaem/emZ5fbgo3+ye7/yNzaqMBfjyGQbU5TLOIt6Fp8M6023aFh7OOU2tLS7iXnJSP0TGdfjGXIG4Ez7d+yw3wm5tP/Kq66ig4T6a98P2s79zjkRG4pU6aQr0NuefPrP1nqk0i6PSbbr0vNsTkIaume47elothNdbXZioMcmzJhsX/rbz9mi6651Zsb3NmyAHbdbfn6uTRo/wa5dtNDqYNHrNq63Q0eOWkHhWFxhmuKxGxZ3g2v8YEAOd8yPwFxU63l6ztAov+fRETIzkuzWD11hV19+Cey41wlvYumR4QFLS4zDcJKEVE6OSLiiczFwSe5uDHQI7rNRBVn2N5+7A+GnxV56fQ3x47H2pS/cZWOK8y06FU0qI4WqRTrBe5D24iCmkyBZYz5NJccx4TGWFR9tqSkB29HeiAq1iqEn0bIys2waM/mUVN6pbNhvxpm7sHv1nD/nQKw8GFJPEGaIgt8Acv70+ON2ZP9BGxedYItSc21uTIrlMoA10qC6vi6ropH1sLu7rrvGrlp4OROoOokhfsReWva2NbcwfjKuZuOP/cG/f9euv/Zqu2rebHtz9Xu2YytekdY2279nr3XglkvBsOAYsQDuEEtb/FaP2CzvJjI4krUQGMGWBOD0mvencVt/cvn4gBNgdYzpgV+N0F4IWxiseQrj85f++k7s3l32zMtv4UGKtb/57J1WkJnMs0ImghmbulwAio3kOAxzYjK9Jbt30HKJWkyHo7UzLB2pPWrLX30NVpxs/0BIbTGRFrKZSzaQsHixk1pzxuQ6L3c1dXHfgf32xBOP2/pVqy2zq98uS82xWcmZlkOgWBiIbCeAux5WfBzb7eTJE+3yuXMsnfGkpaGe3l/o5ppWMjYrKPy1d961X/zsp4zDnXYjyFWzjtbVWF4C0xenT0YajnRjlbsB2DzQq5rnCwCxWFmXMIwI2GxCgGKOPaoXKj0ke7nDFRj3hCDx/QhuRzCUROKWmzN9okPueCxijz273B74zR/s6Ak8VwHYKYgLYBMOY1OHMgLuAo21lgBi45EPspjWOAZ9d3p8ml2SlmvRXT326muv2Ysvv2SNyCFqj0YC1eZip7NSrChVqQ5L0vNLnrcXX3jRogk6mx+fbZelZFsx0XuxSIa9UEAXEmUHrK6LV2aUlCAo5TH7a9AKszMtfNYsN1n5U5+42T7x8Y8yZXGz/fqBh+0jN19vV102137w7a8zD2bAcpIBwrQZTlp2gAfOQoaSVxPv91yg8J9yL7o3/SvshwhEY7eQyQUHWajajbd6VlYufumwccRVXXnpJVilAvaf9/3CHn1uuXN2fJ6ZfkUl2VTMz5OJ41jPGhEmk8knBjNkPHp8Yn+YjUWi7kxKQzLvt/109BdefNEmEa157TXXYoU7Kwq8JryPX3XOINBOfVt9GYaDMWEjLPjVZa/aYGO9zUYSvCI920bTW2NkdkPY6COaUC7uflhgPw3tR+mTvVZzYRLiYxCECNss329/9deftXlzp9gkAFJ1cBfWmY322c/cZaXFtyMZ92EgGGAcJHQUqndLFMhDQiVUD184OrWWQ+ewF89AoSveG949h7XgNY8RC5PKz2k4qq+sTgIwj/ZLMtbTXHfmRuqSgB678OrZTD64x37KNI8Hn11qq7fttT/+8vuWV5BBIGW3Y6ttcLLtFTW2gGEqDtYcS52i2Qrpm4OoPK1oAMewUG3ZsMkee/QxhLFRTDSb6FXT613uOBQnOvYwEXzsPHeOFYc2XSDxsvKyO6rQ0ZdfRifbbEUo+rOTUm00E5GSEUrCodZB1kBw9ldYVyzIjAJaWhagobnJmeQGYdHhA90EgSdZVmqcRfV1WA77z95xqxWPysWEGLBUoh/iY8JxfTHS0UkCAfIO8yIYPIR6dXKQDwGAq+pIP36Dhu554Bm67PM/hhh5hxSJGEA9CWB5goTcbBC/C2gcVQhsHB1v0cIr7WNI+TWNrRgmtsFO2+mAUD1IVG3rm9usEbgko69L5ZHRlG5qqRgwCjGaTI1PtBkExSdjwFjLkPbq8qXWBJw8mA9VNnju1Tm0iw4/ce4jGVSGkjJxvTV4pbW12RX+0ovPWyxhnrMRlGbEp1tmHwjEChOGiwsexQalIVyl0zuzANrubbttz/4D1oWaISN+QmKKi8GNhVWHMQ4r4HvKhLF2JfqfkOkFrCEqYdvV5joWlz0/Kd1dfNEhNLS2wUqG7hzCTgVT8AGXh9i6z9qlS6L3QqkBzZjDvSdnelgwgkJP+aB19A3yklPQWwvz3bi44BIMK8yuV6iMYo/7aeexYyecgyOR6BBGlmAasFiO07lfGhFrl6Rm2iSsUN2NDYy3b9j2fbuty0V6+M9fnP1pFKts/V5SWVVp76x615pZr2FcTJJNR8IrHIi0BCS+cBkP6O3ypwawJsVynsH5eNQJbGq2a/suayWwOgDgEmnIXOa2JBE5L6FGs8djIyMxmKeAM2a6YD5UmQ6QdA4XXSHT4gUlv9b+/tSXdd1P0COsVh6YE8dqUK/ogH2Urk4KFQvlYsUDDCUDzDDQ1tcXwGtT6aakSJJdfMMCLE3coy0BnAfy41YQ6xUPpaagGmkUER0LwOoysbD4JFh1UUSMFcfEWwxDnOKrn3niKdyJXhiRX7uLsXeI9ZsswCqJ/UlnXbb8NXtt6XJLA2nTYxJtclyypfUSfY9gILeahCZF5HNi0SA1BeAURsVYJsh86pkXbO2a9c5oLvXj0rmzrQjneBhqEVBypchBLXTKdux0Gle4B1QdOjMhQPzgSS0EXQAdfHkbyKgm9HXZshV2DBOkq4u4RCQPIDCFyecaEWfdg9G2ff8R+9Ozr9jtd33Zfvn7x+zLn7rNrltwuUOsxmlxpZraRtuH3TgDBKaAUgkviAxsdBTgJUTHc5wOVynB9FgSFWeRqHcab3ds3+46s9orQhkaBj5Aw+WMctSiPEQj7hykHS4/bO+tXWv9KOgTI5NsGmNrNmpILCxXS/D0ouf1wlJVDb2jBuBJtRx65DhY0Wq8Gk/8+Tn8kxk2Y+oY1Jxk68cAIWqQ+U7CkXNYE1KiKZEDCClDFXGCi2pEEiY+UHItAmAqV53E6yiaKtKBVerpZWuxhiXbLSyHEI/pUXIy4hQ6Nzr1wQpbueo9e/zFN1iPotluuGqeXX3P3XYj8cQZmcwAoG79PUAA7G7fe8C2HiBmqz/K4hmnI6RegVBnFpX0jUQsgoiD8rMZy0uxPpW1MWMex/6zzJSYjMtSDhTV1qvhB2o0g0pI8tX2brwsb7zxFsvvLLd0qG9cXIIVYmaLgSo1ydghFZT2Axz9qTLhAE1jSUZ0OFH8OJuVx7vvYUSPt//7hU/ZeEJewqMJUtN4wnilsa0Og8W+vbssPyuTNZYynWVIFiI/CXAjJeFopHTyZZ2xuexEinQgUaz+dI3yk5NTGRUG7cmnnkPwqbOc/HzrIgT20KEKnAAbrQ57cCdBeZ+8eSGBc5faLJZRyMnKsYSUOGtvrrHdBw+7dhSNmWy79hygc5pNzsxxw1R4kK0r0E1sX6qUYCQ1KJXQ2KL4BCtm6koT5lfNQCw7dMiymGXoquYgqhYG26DDC0xDiBXliWKFpuqaWtuOfVMIzgIZYxF+slFDIhlH5BTXeg3Iwk56VNkqXixJiE8dCLMxUbFWBwV0MuXxmVdWAoRGpMnbbO6cOZaLsb+LUJI9RMw/89JSe2wJJsqffxdLTDGR/0Qd0LJQ5PrtETK9e/6V0/eykqkz6C8UKNJXZf5zbBMu47BNOYVMMfnCX33YfvxzHBoY/MNhwRKOcrJybdHll9m4MaU2fcokx3XS0+mUjLndDDdrmbT9xorl9t576wku+G87igyye/d+xlIsXoyfEQxdYWzigaJmP4kdR4mzoRMXRMZaYUycHQCx5eXltn79epsE1SbD2bzktUGI1nahybFiveSDowOH+K6D+wH8fkuH9c6ITYViUywNsV4eG/VAZ2EN1tcDJm0GqJEgNrk7YKOJjujDjtxNI3bCbl5ZucmWr9lpk6eW2ITScdbf2WevvrPaxUh9EWP7tBmzCRaKh0NrcrMAosbozzvWuUx+oZTqN1is00+OwmGDjjrdA9JR+7Ca7cVd14avdRSRikis+H6jiVlStP4tOAtmIdj1McQMoiNEx0YTp5xIQB2Ll9AJFKTWQ72OnqhmDahjtvT1tfbEMy+i33fbg/f/GzbuUnvzrTX26hur7bbIBMvEIRDPOBsJPFRf10nFefgXjqOoVzL3c3H7jYlJsLrkXtuFAWjDho124y23WAJ2ggjHqZwWHdI6v5Xnt3daudfDBTwEWqh0K4UcXL/JpkWlgNRUywTBMdJXGRf7oFh5Ragjz/OmDlS8g28AU5ooF3AzhXEAj08cum80URO7Whps7Xs7bf2GPe5Zhc3cgQP63q99zZJwDFgv0ydOSgAmSIHDl11h7nT4SKdeN3CdE6HIqS50MkFTITipaRk42N+yP/7Tf0J9OTZ/ziQi9dOJdpB3JhMkIsjwrEJgYDhwjmNWWlRKW/vsrbdX2uHKcluzbhVjaCOOih4XAfL7+/7DrrvhZuuEna59d7WFA5/inHSLof3hlC09ckAyiNiM22T40AYBoNPSbSwfl2YuatZ+2LbY8U64ZBFcRGtaOHCqae8zDVmexJN7YbFyyx1GbI+ClRQlMA7QexNVCjppD9Jsn1iZY3cglutCsW478xwHEXTTKKg6C6NUFBab7PgUmwh72hcbaeU4BKqJGDyEqK935OHJwxhuPbK9giqkSxdXxD3l7B0TZuO6nLvofgQnpVDkumPlAbvEs81QTiiOohJ5KoOJWnd/7h4rKJ1gP/v9E/bvP3+a4dbjUY51e73T5en//OR737PM7Gz7t5897KZLaoJzPxxoSnGuffPvv2q3Ll5ksfFR9u66HfbrR560ydQ9C40glvY7+7SAQ76iWskiQq7qKDehqDka+KbALzXExTFUbNu23d59+11beM1CiyUg/oMm4XMoiW2VYVhYv2a1RdCINLpvBmNTJD1qgIY5GZjKqoKuruypo5uArBa467pHj1UDI+goCfhas5F885koXIlCt7m+3uqPHcVh0O9ZXSQ9otNivgJ9IFbIpSR1FFeGxkdB57QkYHGRnZJTjShPOrV8t5p9sHr1Gsyhm2zhdTfYpVctsFthuzNYbuhA2SGc/OvszbfX2Pbd1SwUgh57SmpsbWR11DSnrinO6ZLJY+3jH77JFl15GVM5ii0+Mdrq6TivvrbSwWdaSo6lEe8V3Usr/DqpXkGgqO+oXmpTGHXUOJw4GGkZqFVJUKghd5SXlTltJGX6NNi26HuoeafU7tyngFy8nLkzFNgGGz508IALsB7PGFOQkmipWFXCaJhjizwXrp7Hs6qo6s9w4cYOSX0BOoLGRc001yy3AEJCRHe/xaESRILI5MRY62A+7H7mkjajrO/fvoPYpC4LjycT3g0QVjLAWKcoBpXhCgBYkkOOV1UhyEZaXh5sW9YpOoQTQ4NtFOVJUBFiGTDdGDqP1d0q0FHfeuN1jCSpTjiZVJRjEwoz7Jo5U+0rn/srq6tpJA64BhNoMzFKbbw6YJ29XTZ5ZpHlszjmHxDsEplBoHm22QQLaHmCHpCA7Gh7dh6w++7/tY0CCaPQHBKkr9KhwqifBxvGeOoloSnCIVXDi4yPqIdcl4ScAnfJAbGawnWCaM/aE8eB5wzXKj2nTXldaIrQSKSkglqYnrGX6Y0wM0tGHUiD/0eBkEFHrV72rsdx6M4o1RWuE+82Bx7F6YLuSXdT10kif9bWs/y4aBtFpEQ5kQXroZryg/h2Z03iSdQgGhimWexaHYbkssVDYiC3lonRb6x8x/72C/c4fbMPw3uUzJEhSeU5FqLxlfLS8Sx96jN32nf+41f23R/8nLUXP8H4OgfTYJIlEZuVhKCVg+N7yqRxPB/MC06FoRpHBjZjuMgEOoJ07AjMoXJO9Lc1Mm5H2/ETDfbCM0ucvrggIdtGMU4n8G4krw9RLK+oTo4rs9ex64DBa9L944F2Op0iGQm5FTPjseoj+H9bCaXRKOxxQQ6GwauT80iUKcDTs+jp9biUjhw57HpPEdSRgeSowocmUFEzsRZRqfaOa0Ilcu9pzPK8O1QniGRJhH2U0CtJlTJkVkuBtRdgxRqLoXwHK42uIxTGxfiCPANgQM1rhTiA9F02/aVlZDIjb5Cg9JecLBAF5ZCll1QXjjQsuNkBdESZLeV5SgGBf3/v5yyeSct3fflf7Ovf/ok9/cLbjGebbPN72+BQR5gMVsdE6iaWu+0k5LTN6utbrbmxw+prcMM1tNEekExHEoeQw6ALW/kzL79jD/zhGRtP3cYnJVouscpy10UGKVIwUq3kdnR149yHm78XFccAuySCz2Vi3XeAydNr11GmfLV6WxQeBKa7cv4/box1rBjjfDNGf63pm4b1qAQVJ4EGRcAaBTGvol7GDqkqmMqq/q7iIWXqmnqppEI/OSkNNhePXXYcJrUDsCB1iHfeXmU3XbvA0gh0c/xd4w0Obo25iOHQOh2GyIwMEFNUPM7u+9UfCeousGsun2dRmCL9KRrqBKqJA4PqC6sW8WlKXDaK/ze/9gVisgbtiaVv2qPPs4g1SBqbl2Jji/OIHkxiwhgeGaRUiJXmAhHYueblff5zn2VR6kkYIrjG0GLSPfeU2S8eeMQJPQtz89Dz4QBtfbjoaALv6s/r3a42HAsOGqa8+gk+qq24WQz1QNGzQqIzWjDetLB+oya0Bd90MObRcyavhOHHhkyKiunVgpV7YMUFYIxoXwokYp/CPKHJq9QwqsiE0nXVAdA7AQ3ec6pYuMZcWqFjjX0KTUtlvB4FQmfm5Nph9g/+aYl98XN3WRrAlzSrQAS9IS4h2646ldiggrlvuOoywlYb7Vs/+r396J9iiP+dBYFTI3UEOqFj/kIKnEI6qQpWbYSgCWMK7P7v/7195Por7YHHlmACLLMTrX12fHtFkCrEIeA+GqfZf+iyKfaJ2xfbJJZMCGdoGFQZ6OaHK4/b93/037b/yFG7lcj/SdjPk1BfolRPCYLaxAepgxCoza2S6teL6/L8SLaJhpPFY/BIg0tl4GGKDGsjdrnLmhnDpVaGS8InOfi5o5N/xAd1T5uSjxuV6QhJF+VT1WTljpZWi41AEJA0rDcYr6iz13P8HPRCSBLylCT16ZHhc3fZNc4vPU4NoeGjsJWOw/5cwbj+2B//bNNZeDIiCVYsCRm2JsnRzbijt8thr0zkDfr4bYuthvDS7933W/tB5JdtHjqpAs4lRcpI4sp29VFdhCSPVsJATG5mkt1+87W2cMGVVk0HaWhixXGiHtpxSUZiMo1jeFAZqQnRmDmJqkQeiELy6WdO7gCdtL6uxR5+6kV74c11FgNSEjELJsYmWCQuzHAQJ8iqPwnUArLqAh6D13TV21Q9XfccBej+6M+yUovVN1OfRvAge7yWtXfSvvLxoMibXhJSlZSXkivWO3S/UKxuaRoGcUvYRZmjhn04Er6Piw1gaS18x+f9HEJePvXQAZUStFdBfuFeY0VRYj94Oej8qSB4DOs7rafyP2WRkE99+Babt2DeEGIl9fbj4AZnDjJaBFNUnJeTbH971+3o1F32j//5K/vn/3O3XXXpdKIcpB5ALZQioLkpl8KqCtWmewA/FlYfiwE/O5tQQ5JYtmhaUYaO2oLPKRPNkHe0xTpPHV0D9tzyFfbDnz7EyjRwM8ymx/HOVMS0oq7ATLEkCbcuTBaYifKF3JPB5p951KzylSKAQbS0D+orVlyHrCNLWAyqkPJ4P8mxYrVbpkFRSBSFpIRhboO1qRrQq8vXr9JZC/EeDT6iE7oNO72r4UlbL1h2EiflKcJgPONbA4Fdjz31DB4OvEB4gzBbqWBgCl/W2MafxvgB3g2DLRYUZtnn7/okJsun7AcAurXtY7Dpucw0oFs6Qc2rgsp2yVWCDAT5fi2uiSBEO71ew456DNJeRCTvGfcSV2GR/YzdNVDqS8vftn/41o9hkcojDHt3h+0F+HFUMYKvgUTD5ZJ4NhE9NgB3UId0eqvyUrlKXHM/1GuoalzRKjcR1FvVbEJw0tdIZOXzknspeHz+O0YoAYveRYV7qaiWEkjAfSUpTUq+swWDBMePz1mGR916XMlxA96RXtsNUhTo1gqnbcNRWd7eQhxym9XhyktCm/71E0tYx+Eyuw3bcVQ0M88RLCIYBgbEBgGM6ik7tSASwVkpuuiX7v4wY3TAfvq7P6P/HWP5gsvdhGitHCPKdb3DATV4HOxlzpLldGFRGXWm7YEwAVLPqRuxdALAlltv/yGcFYSe/vzBp9z6GvHZaZaXnW+deIGOlx2y97obrb662epTC2wGweOjCLGJxmcdr07I8CZfrBCqnL3kHfmg1N51AOqhYy28fbSq2tVJ3UGb/yyH552GpGIBTzzeFXTer/sPqrIeKLX3K0KUifXJiM6+Cd5Qix54DETtxym9AYNAOdXuAgkx2Gzpqvbjn/3KcomDmnPlPKLrWYgLwMhN6Ork2Crl8C8USKAaO6bYvnjPnUi1Kfboky/x6Rbm5Nx8q83EvZbGt3Oi6Zx8f4an2YYQrDqro4gZqK4gF19pwOnEYc4O3A7SDpSX28atu+2xx5+yTfsANE9msxRBRkkRk8myeR+pPgx9FsQfwMjS3IQFizLaE9Ms3xlYwoiTogtJunct8BDqo8mdubELxkTbYoCDWHIfDpJehRwF3/Jh6S5cwI9DrJ5Xr5Wg5I5phmzCA8LMUFJPJlGSX0Xvls68K85FxaEqI7bbRzRCCxJYIwJIGSus7W5jGQOCr3cxE66Jnh2GwJKfmQu1RDKGddqm3eX2/f+4z7721c/bfCIUEhGw9D0cLTo9SGPDkTY03jsKVjmYpIpRk+79/KdtFmz89489Y9/5yYO2cP4su2zeLJs2eZxlZqUy0zwCCVMVF5CDbYT1ORoBmOJ6ncw5kjC1e88h27GngpCgDbZ60y4vbosWJTBkpFLX2OQc2pXAoiJRVjx5BoJmnFUc3A6H77YVTZhKQfK8ZKaDcn0AhCVQjli8YDJiUjukVgB/Wah8uUTPnvEd7vHoWe97iOUpxz6DPFQvifV5/ZoTJUoRTXqC1HCROlfQmTqfGtKnjR7bSi3riTg8gnluP6uG7mC5gjKsSh2453pY8ConfxTLwBexbgOfU4FdhSORHtizw95au9WOVH7b7kEFunTOLCuBQjQ0yO4cJusPQ4VWRlMNevCoNDTU2Yk6rEHxqTZr/nyreuVV++8/PGtPv/KGXTlvhl3CItYTx5cytSQTc2A0xi3pvoCaTtHR2YsZtRuXXA1LDO1zs9nfW7fFjtS0stobKh8GmhTm23TjUOjHAlbNtNEYggNyR4+1+GwCwPFTj5o03cKoX9kuPGK4KHs6GzFg9FlHSrqNJww1D4k3HhhFQrlk6eqtvRAYJFh3TS0CdA5h3m+QkAT7EZJw5Cf/WDDxjzF+eKxT447TG93THlLVz/xK6CUn8QmJXB9GvodYLS8rGbLNsd1BO9LPPJy2JttJiMk+rDZtSMARsSmWP2aixWWxFB6hmBEguVOGBUgmc/REAMKSB5WHbO/hOvvn7/+UKPxxdsOi6y2HKSGDhLDGxYRZEvNuUrFCxSCV1tY12asrVtqGzdusCf0vjMDsts4uvC5xfDCpwZ588S370wtv2Gjm20yHetPTvfm4Whm8Cw9TQ1OLMw2uI1ZJsoRWtdHUS7fIJZTWCgXHB7pwZCAYIFz1EFfdWnOcdTvbiCjhGu2JTSCsdvR4wmuirHLHRqvAwNPe28JS8112NUH185gvm49pNgGpWjCUSiaYeghwo727hjDh5ByPnzgkuGf0XCgVe3eG7/vnDj/BE+UxxIoV4M2gEbwFsqgA/x5ivVqAWVVO93iM7kVbgxRq1oKw0AByj0GVB1EDdrc22X7Yax29OYA/NAcHe2pesevlAdxbXYyfvXhBZV/QUjoRjLN54ya5ydHtMrLDL6ITmd7EEgPvbdtHOOs+GthvhVmJzp02AK/fTJirQl0zQXIMVijVPppxLh3q6AR5+uBZF2bFg5guyyuO4ntNgEMk0ym85W4VOqptTGmJTZ/J/FaQs20jwWXbdlos3CADC9z0lEzLwvmdyLBxHLfj7trj9t7hAxaHjXkgp5DPxpklYI3KKR7PN4Kwge/eQVRnpR3CbxvReIKoE+qUnoIxAqoVRh16g0TCsWApmHqRKRpuMAoJF4KzntbPeaRTH0NyUM5Bb4wbd5SlkBrsWbwhPAavqkbuWGNoD4jUtI4WhI8Kxq/dzAzYjQXrYFur1WpsZDmgrKJiSy4oshh6bgDW1I++h6zogrPFITQbXFGLXYrO4Ho841gqjvmujnrGsUibwJSPWz/8MevTIs8804slrIfxcNP6Lfbi8ytsAl6om/NKrAS2KaQ2IKAdYQzfxqz6fVBWK0BqgWNo/J9QXGgLr7jcSlmwM5Uw2UQQFou/OQZbbw0Ts1e9s8oaYLejsAvNx4Q5FfY+PjYNFTAMlSTCKugYidR1H+y/p77GWhF4uimzLzaZ4SLRUpgjPI7OUENwQm35XjvW2W7bacdo1LBcqF6sV9ZFgRA8O7gKIZIZ+tCn5bfVvN3EJEJ4Sbrnk5q7cAE/QxQrhTocs10vhbRAdSgZTgASWQvRbk9JAlAfWwc9vRFJ9zhrM1Qw03svgN+K1eowwB+APaXlI0GC1NjUdNbSR9jQRCuMAKJ56Ycy0vewBHwfwoa+MNnLOCalPALEpxWUEC+VYtt2HrRf/PJXdum8+WxzbdK4sZaOUT9OrrzGHhudRhDciWa7JC7DCpB8Y0BgK3mPTY6zySyFUI39+wgTpXaj8FfIwlRTbwf2H3SuwamjR1sWCEiA5I6wGMiy91bb2jfetYyWPrs+u8jmxCVZNvVNYByW7tpHR09NDLNc2p4HTKpR18L7Mqy9BWsdSxZ0JzEVBJdkDBJ6AWs8SlWr27fe2oBZN51tgPY7hPKukKUBUIjWRuCiVGPoi6AAhh1tXiCA96xgf6EJvZgCqLRWTFEcUAeVqAZRLQC6l17mDBfKlR4m4aiHCrSClxMIRvsYz/ZAFaKMwwC1BRYXAZXmlo5HNRiDQJOMDitLK2VIQFI+SIBa06kTQUMrmA1I4pVKQ96eRo0ZDVUnipl8qURebNuxx7bv3M2MhGUgdgxUN8YK0rJYzONdO3b4sC1ILrZslndPomNFUWetERWHwpyB3Xkc9W+NTLV56TF2kKXfNyOVb169ngjMd6wkh0lldLoEalWBD/QAaxLPo8zrC8fZRJBQ2o2UiiGjl3YNgCQXBdGFIAR3SqVjHaG8CMguwNjYz9TRuvpalmBoZ02NFLxisZbEEgc1dDbm67O+hkc/4M+Np6JWWZkET+n4PWCcUDFHNPoqmKIVtXiokt7RxisXlOQ5ckmxQYqQiyImuJX5Jw1Usid8eOa1epZYrwwM5QR3bYM6t/HMAUx7x8kkjJ6aOqoYaiuyxIwcVi5LQKEna+y+WqVsAEoehEpluuyEZfci7HjTOZB2HV+iAP49aVwNgYMgcOVMmAFFNNrBI+UscVBO5MFyi6YLd3awLlQ0xgJWaYkF8AEM8YiyjJmMzQAsCuuP1oFIINQzEXNjJuN1PtM6R4P8nXyYoaWmiejJbtSVKEsBOePoTKlwjBicFO5zL4wQYpFa9FNGDDf2UU4CsVwZsPB+ypfgKQuWOr8Q30HezJSGSCIJle7EPEvZzCKI1lgOnJ0hQntaJ7DL7CktopP3O+EK4mbJqFUZyCSKe/ogSfZzB0RRa0lJseUX5ls3gc8tIKKHhnkxsaoE3FMSLz12H2Glm1oa7TBIbmasikPCzUR4SB7FbFDGLFFpJ+rEAJjtZ5XwThYT0Zr+fQgfmmtLtjSZDAGG5wXhgurB5m5qJz1aPZknwxjr0scyERrWPcgkpk6oA0WECA1EBCDWDxL5qqZUQWe80LtqlyYvh0F5SXSuSFZ5IRLF2qHGTnTQAahoUu4oovJTrKa33TY3V1nbccJ2opssnemhbTyHGk5+cBDqwT9H+JRBmpYygAc7tb+fzgPpUmMkXJ5RAEBLT6t1Mg7HAIdcWHo81BdGx1PzaJkb1nQk/3UvWxtcspXOrwXEEoFlKtEeTn/XQ+eZ1FG8/L0XhmzFUbCtXFhADtvh/WUU1G1dDOgDGA88dq0qQSmwzXrGnUaNxaIIwkeyGVNiUnJtICoJJzjWXCRKhWf2akPQ6YfdOv+q88kxutBgORjElp2LLVgpGBNH3jUdaQU3RfAPSlrHyhONNB1DPG4WiO4lMp91cFGxGP8AziDcRNiUTq0Gei4HaIB6ym0mi054p2zhokoi/albN0JWT1Q8HUPWLVE7xnjGyVjmKfW3gQjaqjbLXu0iM2HzyluxYdE4+jUO0q24JvsVNl+oLwzkDJJvFx1QwfZ5CYmYF7FSAUslCcaOYtlLReylUzRTx2My2iDBx8IxY076psDJCHOZhPy4+nF+6n7Ibadp82mw4mzE+N1UogGhqIN9Lz1UsUwMqc6VFkE3jsaSM8CggN8cv3O8xTOuDKID9gJAmcNaYNNdIFQfbVCDAKvHbh0I1DKQJ9oSlNyxDjVe+ececmRmVZU1/oJdAMp7ACmSMSwa63t4BJ+whr13x2KS4xFNtBZC9edRvhg7JaFaBaDSBPTcLHThdowGx7uqGFdrrRaOUocXp6y9CbYJR6KMeriNk4Spj+SCAXUatm68Ooh61gE3iyL+WAiXyVJcSLHA2sI5DtCRA7DqfIayLKhbMyRkVXJ1gazDeMZZ5ugYDNvWCPs/BqzCkc6LSorddBgPOGp/6JF3furvqUiltsN6rAZzLXwxDslzGTfqQUgjhbWD2CSAr94YDvXEILVmEHSdjHdjkHGkrbmVGJ1O1kFC56RziGJkEVLcsBzrao6/qWc7ZMI2Q5Mq4j3j7b1zdzH4I0R7fzpSgJgWs47GENFEPTqZcxoH8DS2+vmoBE/91xGUzy1xHgkVPYybR+lFDcQv5cZi9CjIxq6bYa1YoN5k6sa2sEbLBjSFjL/htE3hPVqYpLsrEkNLJAuUYbTILiC4zlvbRmOw6wHqxOSvOcEBbOIlyXkIcQhPSOeeAVN14T51GQBWEphagFM9QmQbHKRwTIlNmT6VcdafDRAEF2+dKanFSso5NA1RrKgiiYF7zOjRrsecwAx4BF2wiB6XRiUitcE+JU6lwg7TqXAiVpnWulprqqlDOCECgtiQcIwNkbB1yRFib37BQ4VSA/VcJUeJ2rszHQSv++fBve5rFNPmmy0VshqucBICv1pAVBIP6Z6Xm/LxchVye0BoK0JVPYJeGZPMtiMfJE0osdLx42za+Ak2enQpenWYVVUcsc07mNuLM2ELn3pJbcc3zfsJLIgSi9ZQh+PiaCsqFGwzm7gtI6oScwIjABQIcqNg1VpBRksWxNAZ8ggBcnFQ3BPlq91CsNa7EGI7qWKTEEvnaWcvwirIK0CKhhtQ/+FWcHqBycnhHgggX2J+SsaOtUkzZ9iud1dbDWymDsEkG8lOQVcKdo6CMuRmy0PYyoKNaaWXJpCblMcaR4xXMjpEcb+LHh5AQfPGPJWgZnmIG6rjKadD1/2D4H33HmULsertEjg6KQOPtzWFt9kRVKeUGIQaWKOCsZ0qQVmSOCV8tTB8HGE03sIcoi0g9QA+2U9cOtc+fddnmLycY3EExoeRn5YjuorpFlrBRouoPIGPuIjpH2PHTKBtcRZdV2PHKg5Y045dFiA2OoEOHoaULEFlEJbg665hawAAJCJJREFU2C2ySQTj/2jWVZQpMY6hSZGeru6MperMqp/sAZ1cbEBDqIcDQAeWl59vhQWFPCv0e0l7/zh46bx2noLlHqVAVJ7CklKbyMrgW1atgR0P2AkG9CLYXiKViWCc06QiZpdYAb0xi0WsqulpbTiG2xEWUnFZBWDVkYxhEQgicty7eGNHPbQ+SJF+zU5DtH8juPfvuzxAmJixUxHYd4g6GOfqgOpBgvCK4jJdcLp0cogBhCJtctyAKrMbE+UGpNjmdCxf6KndVVV2uA67bzfTMpBak2DlhyrKbOv2bTbzkll24+23W3Z+gT299FXLnT/XcqayXlQg2kYj2cfj943OwZjxOp+d4UvQOXmJdHivwuGU1YG1KbK73aaxWl0mdvA4xmusAdQmyL2ok5Aq3V6LnNXCtlsZ43Pzcj13I4YVodIjBf2+v+QQ6/cISarJWHYmT5liqfl5fA2q1sYMJGCQgCXRIyMw0kcjXCQh92g6Qw6ejxRUmFZ0t3ZRLeNOOLO8o6GeCCigl9VB9eclf++XdnqFaTMd4/TrYkpqqhub/Ns8GA47bqW8MrjGWDpgjKMe2aAR/tB9jkKBe5jNVgnkB8YX29g5sy05J8eMr2JuhepeeXWFZbL0e1JaGh4lfWFkleUXFVhxcaklYLwI0DkDBIu3U04bulIcXCoT9j+Hjr129VrXMglLMDGPqqiD2HASTvti7MNy2UWiykjWULvUPqlHmuDSxhhfA9smVsL6Ub2mAnN9blUfhFI6M5Tc7XP+hFCsMmOOKxWfNn0aK6tNtzUvvWKVWKHqsIVmaXKVxgp6pQSVNCqTIyEKnfYoxob2+jpnTYqnYlIDZDnpC5NVyet9XlXPUd0QzIq4hWP/De2HAMgdHfcB+O7EBFZiabaNsNiO8BQkZ5zefAuvApZ4AKGEZdpsNNM6Rs26xFIKYXNwn8l0yoryCr6v9wxrIE5wUyfHT5xkH8MJMLp4tEOogO+6E1ysh3b3wyFQiJDcB60cixdSo6UUlVAp1cRjr70y6uABGoOpMgM4RKNJKMhNSFV7vM7J8EBeLYwkx5GGy+h8fcBxCssDjRpV7CITQ9tM5g4O2o+U9Kz/fOh9sX6XvGZQNJSWR6TAWOaFtoLEAyCunE2em250LrHCaKg3EfLJpfIFqB6x9My2uhOw5BokQi8ATQYPF2XnMETRp7Bhv9zQvSwzYmsRqDSyUnUyN0bzgMSKpbigVTuEinIdSwZAPXycsIWvL6/qa7fHairs8bqjtqSh1lY011sjZsPJN95sE6+70WLHTnTRDa3R2LGJT55xxdXWTPzusleXMXP9EBOv8wjNWWDZUDQjjrXK3KmOjKHfG1pUKOGqlZW29uXniIPOZSJ3FCE/dDBxBBDYS37hyB2lEEIqMFLMsFtzw3URIUi8B1sA79QiKVfhq66GapPz8my2ZihgjvU7r57TFpqowUlIHukZ//kQivVRa3zqi8VArphvky6ZYSe27ASx7cxNwQ+q8A0UMFU2TuwYlltMCOZBpLpWxpZOxlmteRQJi5Z9VJTrpVOr6Bc/vHduQjXcYQ3roPKsrrTUaTMxPrA2sKiPzqXkfl1Hwc4qCRw/q9yGndistXSPvjGbkU+IzU03Q61EPlL3DgSZXsZ/yaWx6LLj58zny9LHbePmzUzeWsXKcUUsht1qh8oO2HjYYhftiKNjRKOny8gh9aUDlr/6zZXM7em3tFEFdDRJuB5VSsUZJMJwVCCOqZHRTG5GSlan5BkxIkwBbmxVR5D17gjS/D7s0ydQKadASJOnTmMoYRFR2jcStNRmr/WCwMjPeHe8X4o5OQm9UbCfmbjLLr/yCqwiUC0zzSsAWjP3ZC9WyVH0Rq0ZmIcknYd1SjNNegBMH6xFYZxe0SNV8eTyhs541BuHoEwMCvroYX9ns9NV45hrEwYCBURtylU9Wwb0XlmxAH4CFJeaPwrjSZwl4Yi/ZNENNmbOXAsjyqFfU0cQYQJ4awbZZJqPwQk+dvps3ID9tnrVKljzYduxY4fd9+P7mJSG5a213bL5jGgENltZoKKhrH3bdtjeNWssLacIIMOWqYmkfpkue9qbrb+13ibCEQSTeGzikXA8V1OeUZ1ljGhCQj/KOlYV/UwhkdBUWGA3XH+djSouVm5YweBKbB6Zae+1l90FpVMQ61VXYaHZ6Rl23XWLbNq8OVaPGlGNkFSN/ib/qwSAcCg3gS0bnas0MdEp4r302C7cWDKiSyp2mDrP6qgBSkIuxUMGknqJVkTC1jydCFQbh1huaU/RUIyONfYhSKk8OlsvlC59cMzEqXwPJwWrEfYokO+sQmL1gMrNSUA1G4UaM3HqdNu8aZOtWb3GLYb9mbvuQkLNsxM1NRgKWP8FbkHOsOAKZI5n+D6wJkqjzTP8qJriARG0txsBMgzkj6ETZsGi5RvWckAymQo9vewVXVKLYHUQWO6GA9VA0VqeYMFClhaic7pEpkGm5ZD6/tDq6fxehiG/6olxCBmzZsy0BddcbV0xEbaF3rgXS00dwOlRL4atReNETGE8zMW+mQabHmDWeh9ChRAr95lW5ZbXSAA4a9KgBkY1brqHOR0UYjGYRNL7NX1SVi0JL0LN8N5rtt6Tw6GzpZ2l2juZUNXE5O1D1oAlSXZqrfKmQLiA9rBsmU9l3I8m4mESrFoeHH24WOrZrbfc6pa1r8BAIW9XDLJCA0aNV15Zbg0IQ4mwZ62WozLDQLq+dhnAKzTI+FoUnuCQ6ixNwEkWKXAHFXq6dztzhY9Tchl1UtxjDmtc3HjLYpbtG0WzHdN2+2FN4qxQO+vNUyg2SCy8ouExOyvLrr/+Bps8e6ZVYrXZKb8rA34LjeqFpUUw6ywW5KaC6EwQEAX76aLnamaawkPlWJAhXxWVUDRiElJdEnJBHAWrh6unhyFZu7myXg5cHU7qLA4AXFQJCt2MQ6KPQqCrra6yd5Y8Za8+8UfbjgO9rrIcJ0Azy+DxnQGhVEZpAR6kKGRn7Iw5+H13sFjIe6hoPENnPHr0qKUgzEgv3goLrig/QjgMYad4iBS8qXrKaaB69KPP96EnjyOATbBQ9+vF0tUJIluxq7cQQdGMkHcMC8YBYLiPjjLARK5FH7reFi681k0VURf1/obb+EGOnPCkyoUmAUx/4ZgNZ0yfaTfTiw8SeVB2vM72sNB0NuGXmpIg5TsGGCUTDpKNuykG1aiTcVYTg6Nw30UgQLlpjXRZ2WlV+bMlUaMYrBoo9hcNgEXvslELeW5yk/LgX/UTAJXoA2CXRSmxsWYXllgLcUmtDAmtmzZa9f49lo6xoXjqVCuZhH5O3FUs8VWK4pADPYKQlkkz59m+zRvcCq0LFjLzD8lYViipflrRZePLLzBxOhMEwC6pi1hlD+OjXGtay7iHbyIUIB2VMBcpEQ6mL0K3gFSpNE10In0LpBYbaxUS804cJJWoh6UTx9uiRQutBMFJHESdWRA6FRdcel8p/Lvf+973vAyDQCJrP3MdSWHWythlNHDDzh3Ow5KOKS2Z67HuFUVVYEVBYDoIQltoVCJrHUWBaBnSuohf0rJ0GgO9Ek6tp1+aYEaJbMJcH1GEQm4mEY1h2GQ7GZMUzRCkU4do1c/9aZzlNRkUFGmo8UrUq1XP+zDXNWEtOnpwv5Vt22INtXWOuiOop0yBscgIyXzeShS3ecN6Ky4pIXqx2fby5REJYm+sXMlayg2s7cQq6lCjsEpxUDKmQjp3M9anjqNlNge35UQ+WKGVdbTKeiW69H78x7sIzdnI8PQ6quB2yqikDbKIyS4/nvUkCwrzqC8RnHTMkdAabCHtHOkuF8+Qwr8TRKwHMGUznHQma1QSiNUH/8r4yuLuinLrBOgJNCoN8VyihXRNvK7EAbUSwNVmMZnE8KZkMDYSzkkgtZzPQph6uvfjVVOSrUM2HcMJ2zRYK5lrrms/nUHCUAaIdQHlCEWa6imdVnXy+7ds0w7S6vWSKBnXhOAIEBwJgmOIvwoDyXLvtWAdayAS4/COrVZfdcS6tIYhVJTA+k4aAHawwmsz32PfvXuf+9BhVdVRqzhSyVoUWS6kVcMKVaQOmAlBRA+dtr76mAU6m2xqbhGzHgK2v7HWNiGP7ASxOxE2V2M4OUQYTYDojSuuvtKKxox2DnV98HDr1m1Msm6wKahX+rhwKOx9LFwIYsXvBE9tIXrscFY60lCuTY9JgLjs8ivsk3dWsapMnR08UGaZTbV4ePhaFCw3ajAK1affchhTo4jL7UCQGJCrCslTxnXVWAzWZecXozIAlEsIWxIwNBlZH04IEL3QB8J6yRNe7uqhVc0k2YqgvXqFZETG0oMFdTcmA/R+zJ86VoxwBJadOHyd/WnpNsCqNQoCKAO5ZTu3OAovGFXKjHnCUTD0r1mzis5BuRQUzVwcrRwTSftVN3XMbihS8kIfEQ9duCwH4VLprCBeLoRWMYdHcVK8Lw4iVj4ZZ8OcuXPtKj7yMA0E9tDB9uzdaw8//Ii9+OJLrH73qk2YMNHu+szdhK9qCrSKPr2Foa0d6TgISYHa5TECYgU478/PQMBMQ5C4bfFiOwZLfuyRR+0Abr1cBBKtZlbIOBXGUurRCFAaL0Sh/UKsiAl1ZUDjGchT8lgtQyItcJYmHhoACtJb65lplg3wI5Bg++jt+lZsBA7/CLxLUXj6YzSFTC0naRxWLSXcuJa4H+4z7vfRGXg5qA/qYc4Btti0JhN3d8JlqJvirtob+Cxq42YXoRmOpO8kZvCq6aPJUD6f+HLf3QOvzLRUmAxeGTiWYrf0fnwUwIHj7GgkkJw2RqDqzMGKdP2iRTZh0iQWm2bZ/LFjXairyld9i4pL3OQxIf7ZZ5/j27pv28JrFtrEiZOpszoznVJA/wDpNMQqu5GyFPsrLBxld6Ln7Tt40Ja/8KKFN55wM6/1cdwwximFdEQgMchqox4tp7ajSpCHJgG7PTln9zHDYCeKALlatezEoUNYvohuRNdzPhDGKakV8D1CTpjCD6t1a2IAaQHXKfPBa5odqK9U9TEkDGDZAZtB0HjId6VTJwFXyxHEsTxBMp3SGSvJz9ONqTMIlAuuFTdf3Ymjzj/aBcuOYM5wn+KuRL3KmXwSkG5rmVEQhQPi85/9PB+4uMZmYnfOQ5eOZgiTPq9mi1Kl0apjy8I0kWduv/022P5uKysrY3rJLispKXUqoss7WPP3uzsNsWfLSALQhIkT7et8haIVdvvO629af0u9G0vzo7NcUJtifpvxqPRKqqT3aSySmVCRe2LIiuhTkpCsKZtCkhAe51Qj1AyEjeaWY3ACFtwgFKWcBmtS8YmKvQ6JAqafHLUGT0TB7p/7ihvK4rs6+s5NHDMRYhCCtEiJxmNFdrRiGqysKOfjikzHGOpsLgeLQfLtgRJl/VJyZSBDJMn3S7jLrNmXWC5+01bG+5WvrWDYaeFzK9PtH7/x//gUzfWwX1Z5Y4jqZVw9UVXNckM1VoH6VVRagrA0nthjYqzpVNLx52AZm8NHMf742B/t9ddet8svu5wPNClqebiNrhLv4+e8EesXpUrPZcz4l3/5Z6TUHlv7ziqotN7GY8SIxT+qWW09BGh34yMddOwYYcexW5nKTq6hKEiIrcWf21ffZANNlVA2ki/ICWDFicXHWn1ot2umluaJxQI1duIELEuZ7jPhhbC5ouJiy8nJcwDTOhWSLrVXKIvGWHVGWY+QqMhHrJuPMkDZHXAVyMgChNoe5xPje1iFdemKFawdvMPyoZwkhL9YKEsfSurgQ79Vh/Y6JP+fe79q8+ZfyjoR7fbnx5+w//7xf2E9mmhXMIam4vLsZQzeRV5PPvGELX95qd37d39nl15+GR0tj0lhQqoHBNVJH04eB5uWhHy44jCCWoVb2tYJaR8QueeNWB8lojjpb+pd3/vud+073/kuC06vscqj7ZZJb5Tao+TYJZUTYMWOet3Y4efi7XVP404a/tBIBJVAXzFqDFYrOscgPb66Ypd97I6/xvMxm89ks5ZSUY5brl0uQRkRolG5opG8hUw3dkN96iyhySPIk6+KQasdEjikA/cyvs+vmY8kn2KVSMHpRFVkjiqBU3gxw9KLBssZb3lW3h+59oSgqDsj7IlH/2Qrlq+w9m+1Wi9m2K18XvTpZ5/BepVhj/zhURA3DqFMAiF1g2NITdIQpNVu4hHqZs+ebVPRsbdv3w4c1/IVE30jz5viEdqOCz0ejnkKvukT1cmg8G5qfokAIWODKnvZ5Zfb//fjH9k//9O/2Kq336Z3Y3GRUYJIfLekOqKuM5JDOUTYnJY0RkqHS2KcSpRBA0MHL6JAYbbEwFB77KBde9119vGP3cYaEx7lO0TxI8DKiScWK8O5A5quOLZAh+K65AJhw/sT0ocRr8BSIVjjpdbkj4Fl52Ej1ky8QbFSdRZUOlF6PAHcgwwx6jWiqh6oUt/sK2Ea6Ec/+hEQ+AfUlnorhtL1nYAvfvFLDkY1fJd+27atfFSqxwmWsgeIy2ivzES1mei+aUT/17A63DbWvKplSeEijBanJuFFONFe27mSWu4edL2Y47PtHTujwbLVSgmR+W7e3Hl8o+4neIKudMFeekb24QHCTvjCpxtjPW8F5ooglQwVCovWWFXPGhR1rEp2FEGluq7OqnGcawJxDyublx89AuIwJpCnM0+q5/MnqdFHnCdBitESLUT99KkVUYiHULXQR6iPYrgOdxWu6jFoqJZO5qk8Ua48501CNuhsY04vay0O8kkzpZ07d7pndRzPeHz9hz7kKFDfgZfcUJhfaMnEEusrHUuQeJctX26bcDJUHq3E/9uMYMkMCN5Vp1SHjEUOcJ8gBTaHcf4fxlbgoVBQ0iZ0esl1RP+Eve4M3w25weGIrPhMvcLvKdqrSI1VAursSy6xX/7qAbv//vvt+eeedXqii+WFeiKgGmANoE8uWHqeVB5RnlhTM6ZIqT9aeERG/3A+49KDpFnO2NOD6kNQsMvAq4P366PLz9q7enI5ZzrzQaZ39L6iKzUsqPMonLYWOaGftSS62+mdmEoDTvgLsA4WY35QWFDnKSgocMOObMtqh0KCkgiO++hHPmKf/PgnXQfz6hDsZq6y6oQeQSXwbCGz/1JYhqidcVsx2aFrPHnvnvnXb/upT4yI2FMf0vlIQFMjpLULOVMmT7JvfuObNNJsyXNPo4oQeSTd0Y2x0AcZnFoJIddPGhMkJQu58n9q3mwS6tP69/gOLFKqkkDj1STkRXfH+/HuekDzkR5yO/i+/6yeG85HgXyK7hdiW+hkvczAx1pNfVhZnSNnTuTx/ahjLYprAiFKkhNkwDlx4oT7qnUiq6IK4fo+7r59+9wSCGLzSbjzMhH6tO6/ZjS41tBWmT5Hjx7tScM0wHE3AesDpvNG7EjlOMA4CzxHNDo3N99mzZrFaqMr3MRmIVyNFHsMBeKIeZGP98lPnoQiRM36JPhAS+0QhXiI1dunN1xXQq8OPztSaadfk7Dns3qn6lAHN0RTfwlr3mRkwx1YxjcDDlmBU0sMU2CK3XTTYiTr4ywE1o7ple/5gfi1a9favv373ERuwSGe2OQE4rO00PTkSZOxERc6J4SGADlLJPELRuooF2Kc8Ns93EW9tn0gxCpTVUZI9VMC44sA0Yp1RhKgbomKT6YP/2lv71gyTzhhiEt6h1Ea8yJfVYa9NRAgVoyxXGUJYV5x3vHJOZ3/mfJytafy6nzSxVRvhfPom/KOc/CETKFisUKOn8oOldnVV1zp3hP7TkcCXrduLetZtFkG0RSaSnnbbbcFO7Xs2hq28AuDNJUlwU4rr3VhR9f8JnUqsXcJpLLeiRBCk4+80GvnOv5AiA3NXIVLaJJnRSw6jGkebjU1BAQBxVFv6AsjHLvnuC4XHZBFjWEKBA3ff2Avi3uNJ9JeTPHiJw/F5CskYwLVGOfX18Mn7j0Jb9iw+4lYPsa6wj2YLuW46EGXF+IbGxvdt2abiSKRT9et16z8YO1qjvRndUohV0nSu9yGHTgSqiurWE+j1mbNvMT7kgeFus7mnnx/P+eNWDVeabjfeuehvzJexMFSVHnNSJN92OmzqD3qkQzHQWoLfYtGKnNlLAe4Esfq56LgHgwJBw4dcEb4gCBJ0nW/Pu7Cefz49T71PZ2L9QmQQl5Kfr6VNe6hX3l1EV/QPS2DH0dERSvG/uOoMTVYlCSAif3qfk1NnUNuTneeG2u9dmP2FBxAoDqKpr4INrJXS1iLwuFxgve0CvoJPp829uNjnAql+vj1PY+mjfjIeSM29O1TgTN0T7KU+8P7wdihUNQAeulwcNvQk2c8cOCkAKFOBgKtFncE19jZGqp7Z7vvF+Y/o/qDymDnGG6N2HAKViAnNvCM9PJBWOsgITWacecLe+UEvh07dowIixSrqoLaapnOCeW+9vqbCFcHHcV2YVLtgtvoa55CchTOAQlPGmNLR5daCvNy69B931n1LtEb220+SxndiJNFKlRoOt+2hb6j4wtGrAcUL5tTC5XrTVSppGmInay2JmAQbQkbBTic+Ox2JFYjChBCtfUBVE1c0ihdXX2UlVlbCE2J4Z6eGZnyuXzOFIpc/2HVxcsTxDLdIwAy5CbUFEkhWYh1a3KAeOnOQuby5cscZW7D0rQByV1qy2OPPuqy7CAooBlnvSxqNy6+0cYygzFX84ixWqkziMqPVFXam2+8ZS8sed4tsXfT4pucX1bDmV9H7f1jZSz4+Nd8PPjnuh+aLgixQZyFvj90rAI0fCQmYgRH6MGKblXE6Grh5igBiy8xhrNGoluDF0sUGAY7okqvsqq0x6s9ypDrO1LL/KRl2+7NW0xr+8tj8n7SmRo/DCZVR4FufIkDQSiKYLMBKFDB4hoS1BkdwKG8RKReGSN+8fOfOVvvbXhoPnXHHdh78Usj+GjsFBX+9tcPOKtaQX6BE6bk3SkvK7etW/ADlxNus3GjHcEgISvUZ+6+y75671egaBYVCTZQdQ5NDj5c8O+fug99VscXhNhTXw49dwVRmzyi+EqKixAIKqFUFHxCU5oZj7RmUzSfKFUAdoxEe3qmIh0cBfKyV1Hv17PiSnhizCOEtKfpuB07ejy0uAs+FqC83E9+NfSa1l7MxB8sWaGfYaSXWe3yE4Nv1w4JRPLeHOfjSt///r/ZrbfeygcsErEeEYqDt0YlSHcfO34cYaqJ9vqy5bZkyZIh96JKFsUrCC4jI90+/ZlP29VXXU0k6DXOFCkdVtzDr5O313jrXzm57mc7u2iIVe+XXXgcoR/f+qdv2guTJ7Jq2htIkCcQLGqtq7bSuhrxW9Ljk6AKzaGJQ6+T1BgBBbtgNVGwYzheAwfg7TIParyWLVZA0/MX3swzgYCc9K9ywbxst+mwSglR9cRJdUK1A8zMl3iu+bgxsBf5aifhQL/yqiuttLiYjEXRHiNX55GqUlxUbPd+9V67h6iIesbfJkykXUR3CmVSqRQpkUnERgaB7Yopc+U79KkeEho9gU21Pltb/Xsq99R0URDrjVAey1KPnDV7FvN/CpmOiCN57357dsmLVr53HwbuE9bUWMXcFUJhEIz6u8WiCRuloZod7kyJAFeeFwFZEqUEGnlfKhmTmghtlWtMzVWjRmrQqQ0833N1LUVeigIlucbBOvOyYMvoqc0gpgZ1RuPu177yDbvx1puseEyJUEolhFQl7T2dFUxBwSwJlBPLZ11y3F33rDsa+cenU49i1cHP3Dq13UfqyLldNFasalGUpEhKUsRDNqazLPyk0wlfXbz4FvycO+013Fsr31zuzG9NbcwLrT3mgrU7YM0xuPxiiFCIYD8AlfYCXDfOgvg+dMZNGzawIGYDC3ilORB6DTpz409t8NkA4SZ9MX7K8uRioUHMxxk3F91wA46BdHv7zZX2Q1jvpClTEIY+hJttikIGHPBD89Xx+ddoGDkX8s6p7TrT+UWh2OExwOtp8v4AG35ZTIvVRuPSmFe64CqbTaTBbbctto14O17AWXCMWeHyf3bwaZSuFsJFRbWyvGBLjY1HGAG5+u57PJOqDu7bQ9SGwl280gTWC0lnBHpINmKDbhFrKj8XH/BlTG/RLIHq0mJHxbIyRWPbVR30WihSVZeQrHR6UdNI5Z2tAIXWnnc6W8VD7+nYsVNRcFD/EdDSUpL5Lvt8mzZtit1Ez9+yZYu98MILBKPvJ2CszW1it22MyX188FAssQVWF0kltSzDkSNH3Ad0Iy/QAuUj1W+rv/dQQUfRGA+1qo6OFYJYfQFa5j4NLemssiabsKRh6aTqsurCSvr18veuDJ+fG9FeDi6bk368614tdRz6nI698lSLk+/5mej6BSFWL4YW4md08l7FSt8LPuvVj3NfV8Rrgz1ZW2lJiS1ceC0mw/12tLra+SN37dlth1HyBUBZqyQ4VVZVEdnfwnTH1XbNgmuYc4PP9DxqElqvYDXcJX8889sSIbUGxMo06OzFqivWouCw6RbUmjFrpi1/ZSlhPHU2jg4gCVnvuxGWYyWda9OZNj9/73poDbhJ8q/4z3lXT//13j/5+TMh1c/zorDi06tyflekN2agxKfPu9S9ICN6A9Kv/KGeKa7ffSv+USIUHn3oYduwbj221XbnyD6/Es79lGMoQEOUqiQEKynoTclxGmKTJhLE9xrqy+Ytm23OvHluaVz3QPDHB75/LRRZocf+fe3PdD30mdBj/3kfeaH3Tj3+X0WsLFWibDVRI6dWD01CeFIDPPCyIgCI3ErIiHS840eP2UFcZtmEk3h2v/Np4qlN9s+9cVJlKRchVMgV+9femUSDrFnhMipTz7z51lsYFO4eEbF+zv7eR8T/39y5tDYVRHF8FEoRFLRWkIrStFH72BgQLbXYFMGPYz+IfgtRKNSVG4kL40pa8EEjiKuSxkVru9A+fIAL/78zOebemwSSamIn5M69c+dxZs7MmZnzmOvPvfS9Hl6Gt58/99wHAP+73FEU1xy+uI/2HhJHMAd1YUN6UXpAu3t7QvI7SV+0DfpDyCxpl5d6gZ5KiPSRyh4WxKKfzKhlxILsc/qOPOGrohpQlaPgqEW7f18R2w4IGgznvscDuTR0fjwfisWikWEUrL/KDJHlS6NapO7cef7ZFI5E4ICpzzMIZzXM/pnwTTH/q9WNVFLiJV36Kfnm39w7/O57rv6M31fEOgDd+JhUDGlFitnEgWSXayLLfJsmOpAbO0U3eSbjxhziiGWxFjX3xRSRTBVNCqwLkLV+kcKdIzBuu5K59Oe+fW1BZdr91zk2DUr6yUGFjXhCOkVYpCHu2tbZU7Watj1T0yKRdU5POmnHT7FLiKjrBt1klN3RYBjRBxXXNZevrqyIJP8Ib3RSG1sdSPOwGPUw9h0+Cqvv6Dou97ARI7zZ1EDi0HiNVJ+4hPDI7WcuT+5ZeAr3Wxfqbw/nR9gEk2Sh6NrelQX444ePwotyOdyam5Ps9LQyjhBFyNO1yZbqsAMr8X0vSrwBCdKP65yeQWlGXp24Esrll/oGzwedtPbNrOMQt3Fkz7wY9nmJ4XCWn1W8F7W3IlIXyouwp4JT9SAGZBhlQIucjNoOTDL2xknG9/t26fx9t741flw2S0Q2ZCfG/dTc90oHgWxJuABiWS3jTMPRquhQpqHxUIcBpEJafV5n/2pmlxKIMyo/i3m/qSPlZ2dnzb5mRGqmN6RDXdB+9pT24OQXS06X4/n3wqfMbGk8m2ix/sbeiwegERujcvX/YYCi0F454BpUg09OTohfOx12tndC5X1Fh1deNsYH5cYRyFWdzxYzDaTxvsllFjyoyzLe2drwsQUWbcM6c2Jx8Z7sV6c0knWmueZ6FlLZTtKUd58C6JwglTrjuLP66yrdgOgI8H89qGvPK9wLf0DcobHceJjReYNb0jl6KjPO9aos5vZl2ae5zysHGTIdJoXEX+tqwPKkA7BAYh6F5JraqaJjdsJqmLl9dHTUzDLOywAapNJelrZ1tn0LBanxnylSC8BjYhDY4olGsdlJGIE0eSORBCQdCSe4zmiem5m5GZZkyVZ6VjINv9xYLlyXKeIF7G6kHMbIGj6r01ukAjoo4Td7UGFQCLHKGavyl1a839UhOEAEnSRUVVASP9DpL+gvvcXeRsjekICCD/XSARqdlXsfG523zN+0Y3NaQYBqr9okQhLZofb9PumIhcpH6SoLtiQiOwe13zF18qqQdq1QCLeL8+HJ0rLZxpyU/PR5qSTVFB22K/LJXHlJJhPYokI6EWSzemak0UCYfqLyuS/eM+xJPsRbq32STe6uMSX2xARBqL8vJC/cWZAGv+ZxNVDs/DEPO/eiy+o3I6fzDEjbwBGo5LlOj9TpJLQWldLOXqzYg9drYfnB/fAbBE0XYpSbHS8AAAAASUVORK5CYII=;" parent="1" vertex="1">
                    <mxGeometry x="1290" y="110" width="59.49" height="60" as="geometry"/>
                </mxCell>
                <mxCell id="29" style="edgeStyle=orthogonalEdgeStyle;rounded=0;orthogonalLoop=1;jettySize=auto;html=1;strokeColor=#0000FF;" parent="1" source="30" target="5" edge="1">
                    <mxGeometry relative="1" as="geometry">
                        <Array as="points">
                            <mxPoint x="1400" y="420"/>
                            <mxPoint x="1400" y="553"/>
                        </Array>
                    </mxGeometry>
                </mxCell>
                <mxCell id="30" value="Terraform" style="rounded=1;whiteSpace=wrap;html=1;" parent="1" vertex="1">
                    <mxGeometry x="1200" y="400" width="120" height="40" as="geometry"/>
                </mxCell>
                <mxCell id="31" value="" style="shape=image;verticalLabelPosition=bottom;labelBackgroundColor=default;verticalAlign=top;aspect=fixed;imageAspect=0;image=data:image/png,iVBORw0KGgoAAAANSUhEUgAAAHYAAAB3CAYAAADW+7S0AAABV2lDQ1BJQ0MgUHJvZmlsZQAAKJF1kDtLw3AUxU9qpRjFBzg6BBcfVJFYUKRLLb5AIVSl2i1Jayqk8U8SH4VORRDBWVcH8ROoXXVzF1R0cvELCF20xPtP1bSKFy7nx+Hcy+UCobDKmBkGULBcOzU3La2tZ6TIK0S0IYQYplTdYQlFWaQIvrW5qvcQuN6N8F1psXwQ3y/P2PLs4dJzqf9vvqnEbM7RST+oh3Vmu4AwSKzsuozzHnGvTUcRH3E26nzKWavzhZ9ZSSWJb4m79byaJX4kjmoNvtHABXNb/7qBX9+Rs1aXSTup+zAPBRJkTGAHlPonG/OzSWyBoQgbmzCQh0uTCXIYTOSIF2DRjlFE/Y1j1DL/8e/fBZ5ZBCbPgNBJ4GkvwOUV0JUJvIES0HMO3MSZaqs/HxWqYWdjXK5zewVoPfa8tzQQGQJqD573XvG8Gs21PAHX1U+9MmF5w04W3wAAAGJlWElmTU0AKgAAAAgAAgESAAMAAAABAAEAAIdpAAQAAAABAAAAJgAAAAAAA5KGAAcAAAASAAAAUKACAAQAAAABAAAAdqADAAQAAAABAAAAdwAAAABBU0NJSQAAAFNjcmVlbnNob3SHl3dFAAACPWlUWHRYTUw6Y29tLmFkb2JlLnhtcAAAAAAAPHg6eG1wbWV0YSB4bWxuczp4PSJhZG9iZTpuczptZXRhLyIgeDp4bXB0az0iWE1QIENvcmUgNi4wLjAiPgogICA8cmRmOlJERiB4bWxuczpyZGY9Imh0dHA6Ly93d3cudzMub3JnLzE5OTkvMDIvMjItcmRmLXN5bnRheC1ucyMiPgogICAgICA8cmRmOkRlc2NyaXB0aW9uIHJkZjphYm91dD0iIgogICAgICAgICAgICB4bWxuczpleGlmPSJodHRwOi8vbnMuYWRvYmUuY29tL2V4aWYvMS4wLyIKICAgICAgICAgICAgeG1sbnM6dGlmZj0iaHR0cDovL25zLmFkb2JlLmNvbS90aWZmLzEuMC8iPgogICAgICAgICA8ZXhpZjpQaXhlbFlEaW1lbnNpb24+MTE5PC9leGlmOlBpeGVsWURpbWVuc2lvbj4KICAgICAgICAgPGV4aWY6VXNlckNvbW1lbnQ+U2NyZWVuc2hvdDwvZXhpZjpVc2VyQ29tbWVudD4KICAgICAgICAgPGV4aWY6UGl4ZWxYRGltZW5zaW9uPjExODwvZXhpZjpQaXhlbFhEaW1lbnNpb24+CiAgICAgICAgIDx0aWZmOk9yaWVudGF0aW9uPjE8L3RpZmY6T3JpZW50YXRpb24+CiAgICAgIDwvcmRmOkRlc2NyaXB0aW9uPgogICA8L3JkZjpSREY+CjwveDp4bXBtZXRhPgrb+ttgAABAAElEQVR4AcS9BYBd13Xvve4wM4MGxAwWWEZZlu1YxrATN3ZSJ23SJH55TV9SCLVp8yVN3DrsgClODDHIKMmWQbYFFjNLMxrNjGCYGb7ff597Zq6kEdlKu2fOPbxhrb3WXrT3CXRv3T0YVZBnlpxoZgGzMHY2ENw4dxe0Vxr0dtoH2Ab98+Bz/mPKJzB0EnznPHfK0n+V/Af6+y0sIsJ7mfP+7i5rqK21yuPHbPf+/bZm8ybbtWu3VR04ZI319TYwMGCDA4PUkD9XPdVzOM8A9QqEhVkYW0pGlk0cO96uuHS+XXbppVZYWGAZGZmWmJbs7rtC+4BFJEAhXyNfC1defgW9av3lflXOKWWpLYPUpa/frLfXrKfP+pqarWPlanvoO9+391qO2wO/+jno6esfFO4G+OsZJJOwcE4Hyc6DRoBrDtecD3BbV71fPaNiA64beBXwKqFucWrynj316snnQkbEUMnD9wbAUEtri23bstl2bt9u77zzji1f/qr19w/Qvn6HfIdQD5NDL2akpVoWiOrs7rGaulprb28fuqcDITmM9kZEsIVHWG5ugd166602d948mzlzppWWjLKIyAg6CB3K5T1Ap1CLvXaelNnQiQetoVMOPJiFXrnwY8HUz0cluP4lBAMDh5jWTuvdW24nlr9i3/r1/SBWteYVvdgfBGoYZ17VhWIvCdFqkH+uqz6ydE3v+0nHpzb99Ob6T3s8Qe/4WxTHqlZ9R5tVHj5s69a8Z68uW2rLly6FcOiHUFtMfLz19PRYZ1uby6gwL9uuv+Zymzp1mhXk51t6RrqlpKRYXFwchDZobeTV3tpqTQ0N1tjcYtXHa2w/VL7ijXfs2PETLg8hOjycjk3+cy6Za3d++g676eabLTs3xyKj1OW8NOgoVi0acJ3ea/vILfTuee+FHgezOudOufrl6n0f/romYhSsAkIuHdR62dfWWTtwCvQ4xOplveJl4SFRmfiI1D2dhQWf4NRd8ZDhvxlaAf9Yz43cZN05+Z7e6WPr6u22Q2Vl9ucnn7If/tv39ZhDdGRkpGVlZVl3b4/Vnqhx10uLRtlf3/lJu+G6q2zc2BJLTE83i4qiseSkBjskaE8tOVZdXTu7+mDdDXYMQBw+UmkbN261p5951vaVV8EFaCvPalu0cKF99atftkXXX2/R0dHu7WHEqv4C75lbSMlDKfR46OI5Ds6EWLVDJQtmka78AaiYp0WnrR0W6A0iVohzDXYFec33znXsnXvZhKLMPTz0ozsj3T3T9X7yDecN/52Ork7buWOnvfLSS/bggw/a8ePHLT4h3m6EamZPn2G1x47bkuefs0MVR6yoMM/+9nOftltvvsnGjh9tkbH02L5uqgr43Oa3Yaj6Q/V0B+GRVJaS9az2jFeN9U22ZdsOW/76Snvo8RetobHFdSg9/51v/aN94o47bMLEiTYY5o35jNRDecKsgy0ZvubfFEK1nQkO/nNn2vvwCWlR8FFPllDH0jO0SCzYoSvA2OGeR+TQ5aEX3N3gmbfz6Pj0zIcfGqniI13z3xAIVHwbCD144IA99/Qz9oMf/MBiYmLscgSam2+52abOmGHp6WlWh7D04pIl9vxLL9sX7r7DbrnpehsPQqMTYslF1CmkIlAMsDHuumO1SRXWJsFHApDX3OCe2qmCjJvGWGoBNhDe1dZlW7bvsRVvrbKf/+5xq29odvW8++7P2Ne+/jWbPHm6YzVhgx4SRdke6tidliSDeJxCT11o0jv+e2qGf+zlI8R6Mo7uadzVJsEqBLG64ic9pi00hRYRen34+FxPnFwpEUmvbUMYemXpK/bv//pvFh0TbdNnTLO/+9Lf2eRJkxgfY626utpWrHjd7r//pzZx3Bi7/8ffs0sumWHxKQkehcKWLYy69rPvQ0rs1wZioSDXBr8pQcT6eB1CsJDCfz9I19gaFgA0EfT9yGhra2mxzVu32d1f/YEdram3nt4+W7RogX37e/9qc5GiY8KjKEWyZ4C9aHKkdC6ojPTO8LXzedtvovbiJe6dYYodzsxDqh4LTecu4mxP6J6f+gF8d3e3PfHkk3bvvfc69iFAffaezyK0XIIAE2Z79+62lW+8YS+++JLjll//yhfso7ffYjmjcqkeSOvtpAUAU4jsgVr7QCxsdRCKHRiEgjn2eAyPSdp3zfVr4J8O10rvBRBABhibnZBIDwhjTBc17y9rsPt++bg98eIr1treYRMnTrD7f/ZTu/rqqywqMobMPOFT9HN6GqHs0x8645XzfdtHrniItv8xivUrKCrdsn2bPfaHx+z3v/udY7v/8u1v2XWLrrOE5AQ7ghS8atU7tmL5clu3bpONKS22++/7vl2BChKbEEeVQaQoEwHLjakgdhBkDILsQahumDFxjMAkmckh1W+5TpUc+wxBhDqLq6R+gteDu/5AvFXVddovfvuY/eaPT1trW7ulpSXZI48+ah+6YbFFRkZBrwOOel3eyt5lpjO/5f6dC9uf7W03lJFdSCvcsc7/RxErpL6NDvrDH/7QNqxbZ0Ulxfad737X5kOtbQDr9Tdesy1btlgt4+nbK9+xa6+cY9/4f/9gs2ZOs6gImijgq+qizp4uGxSCuRYYALEOrEJkELkOo36TeVdK+Ekg4FyXhhAgVsrzXk/QjWASHUZbf3icHT7abL/67eP22z89ae0dnQjfUfbyKy/YgquvZWgO5zmPZh1gh/JVIa4gP8ML2p/tbd3zW+hnqlZoc4jVzZMfOP2KV7mzV/BclVi3fp19/etfd5LvDR+6wb7yla/auHHjrOzgQVu2bJlt377DYmOj7GhlhY0vLbJ//Mbf2+iJ46kprLUH1itqZUwdgI0Lqc6QokFTrDfABnK9sZOmDSGWWokVn9xANZ3/kBqfhlA9IpFStIiaE4i28LgUO1hx3H70k1/aE0uWWWdXl82fP8d+ct9PbM7sOQwhUTyv8VYdUHkrhZThXbig33O9fSqmdC7ESuw4vc0XVPT5PdyGIeHhhx+xfXv32o03LbavMraOHTvG9uzaZU8++YTt3LnTEhOTrQYVpyA7y77xD//XRo8ucZTpECuW29Vu/e2tNgCSpT8qOdDTeoc3fywdQhjMyl3jQUHIPRVs8RDidc+9rQeGkhAkZUzaIYMvZk0pE4M2Znwpqs8/2W2Lb3HmSw0XP0WwU739cV3ClCtuKLf3f3Am/Oi6IBBa89AyHWJPL1aP+MOwvw997cxv6Cl/89/U2LcUinwedWXi1Ml2x6c/iVUoyVa++Yb95je/tjdfX2ENWIT2Yvs9ePCQffmL99jYiWOpORQqabcTfbIThHZDtVwLl9BEk7AjwCKhEEyCgwFsMFDVYDhbmI499WUwAELc5iFISBreqOlpSFXt4QV0iEAY7/aHw2YZ2+OTrBXFv+pwpXXDhj90wzUWj9Te19dnL7241J59+inr6upw9fLa73W8kQUqHruA5CNROfpbKEKV1akwl3R8UZIyHilJAq5EZVmKmautrdUyMzJs29btAOJZe+rxJy0BA0RcbJw1tbQ5g8QX7/mMzZ09E7yBVLFXIba3A6JFWEJyDQsioo8mDiCxRmJa7AMJTU2YDBubHHAjGY8T0W/jYqJQYQIWAS7VyfzkCNo/OWnvgUfUGoZkPkjPCYdS1VkqscO+8MoKe2fNOjte12CJqVlWMmqUHThUBuX222N/fNyuve4GmzhpqhPaTgX8ScX8BU5Ohf9FQ+xIde1iLNy3f589g6nuZaxJHZ0dCEVv2+p3VllSYhKK/iRbdM01VlJaAsWF23e+822rxXMzIOFILFAUK7UGpDo1P4hUyUED3Eaisob2TjrKHlvz3hYrP1xhrXg6khPjbc6MSXb1ZZdYQV4WyFWPdr6Okarprvkc239AXIZ/C0dAaqPT/O7hx+3p5W+TCxwCRFYcb8AsW2cpiYku770HymzNqnettLTUomJlNPHTqSD3r/9l938RxKopPQg56zdusJ//7Oe2DGptZ4xNw46bm51jH7p5sdNXi0cVWVLQmF/X0GRTJk+1ZStWWjXCU2kyQlM3lNqD3ZPxVaOW/iTKDKJvDuLKk/H+5aUr7bEnX7aduw9ZemqixUTHQDEBq8cGnJ9NeTmZQZRSqxFhHEpbOhZts4dlD8rcyHFrc4PFRoXbv3/jy5aUnGLtCE21tfX28rLltqus0ioqjtIBIpGQl9pC1LaS0WN4yxegQnkF2f0PpYuGWIHEh5vMhPsPHLRf/fKX9tqrr1oH7rLCUYV220c/bDfeeCM+zwzr7uy0ysojdvzoMWuUxwW7rHyvcr/VnjhhpRNLQWoXrFhIlcQrAGmcZIf57xiAfQQqeuqZFdYD+S6+9lK7av4Uy87Mxn3qzOFWlJ9n0ZgIwyTdSnrWu6roSSl4feiakKkHEZvg4YMYP7LSEuyrX/g07DfN1U8dqxMnwrULL7V3Yc0//uVjtnvfIbjGRtq9z4pKR5GF8hBb+d9JFxWxAonA39beZk8//TRC0RvOwjR6zBi75/OftxsW3+DON2/ebPt277HamhMYjXrAEy4x7K7yHnmJPfbOQRANaLnE5qgHmo3A1NfaZcuWLLcnnnrFikaNtk/cer0tvGYu3CAV7ozAw+Py1YYDXG1yvAvMZ0vDOPdbwXvBMiPCB5HYybevlbx5ko4Ug/O9JD/Tsm+5HkEwzb75r/fZMcyO7777rl19zQKLihY79ttztpL/MvcuGmJVPdcMKOMA1PrSCy+48TInN9f+5m//xq6/4QarOlrlGr5v3z6AMwBworDaRDofaABgdXf2ODYaEYXeCGLkqXAI0Y8oQCwYa+jBPfvspaXv2tjR4+zrX0LYmjvDEvDuDCJoBYzxmUcjXNQD78ERNb56FKRO4idlqnP2omb2KmLYxCBDh87F/vmVZYsLYfhrhXC59gYQ8OJjYu0aDCn/50t/Zd/49n/aJtx/Lc2dlpGVxNv/e+midin19V6oTDppU1OTa5UMEVdecSXjUIUtfeUVO4QxIhqBRA5wQU4RCQJmL2bBE7U1lpGabPHx9HYQH3Q8kY9ArIcZu2HPe/cfsKpjtfbXH19MSMtMS4hDcgWp3ob0jKdnEKFr0Alh1ErSk3PTqR8H8zppLzBwXZgbxJEo7qG+wB/Vc53NOw5zzgIZLsKkKPJQP/WOi4vCbnypTRhXyFi/16lscu57yd8HT/+HdhcVsWqCJF8hsaOjA3dbul06d571o+utfOstlPgTsMYwCwfQGkvVEfROGNf6AFDV0Qr8rpMsGSHIScSilSA1OTzoHKSlJEcxps6zBVfNtpgoOgYIlBFfDnBv8yhNxxJh5Nhxei1+VMnGuuZRppCscVCbQMEmcVvuOFcuL4JsIVp+EydXU9d+romKpUcPQsH9UHBWVprzDSuq4zDtp3leGeSjP7V1pE1V+0uki8aKVUGBpwldcs+ePeisbTYDX2pBQYEdOnTITuAkVwSCEEo7HTI93i1kcAngKMhsAibE2NgY7PywVQHXGSPcAw5D0knnzJxk0yeNJvwlGYRiJ4ZLOAABdCV3DKnJwCDzcjOhMJEIXNKZhTzl6yFWT0Ohjjz1lt4RiXJMRxlO6gCqg3a8yaGc2xWVVZaemWexiQkWjZGkuKjIta+Lzh3OuOzeUWfzeuVwdsEjPfGXSh4kLlLuqmhzc7NjtwocS01NdZaZw4cPuwYLaE7xF4QEK9KAxisEpb4ebL8AYcqkyY5VS0L2BCbvOb0gCpTPNANOoA4jXXNQ4S/ck+A17J4TMGkaunEAFnwQ9n+Acb0PJ4RDkTBDEsA97VZg4BrV6uqlLi6kRteC1/Ww7lO+23McwdgqX+1OTKLqWJH0uNTkJNrZb81N9Zi0e1Qj9xea03AOXk4u67/Aj8r8wEmVVUbNBIsdLDvkpGJlqsCwVq7JXKjkj5n+XoB0G7uujnaLQ2gaN7rUIrH6uCFMwHRbEMBOutW4B0JEdUKsMvAfYy8dNsD74XCHAIaCsLh4a2nrsMNYiJoxXuhZMVIvfz0fZJC8J4Ru2rzFDh4qd3FhkK97fsAJSqqqZzMOxwkfRpSHbr62YoV1EigXHo4wiGgQx+Xjx6uCEZFeA1X7YAtcVTl1SdX+SyWVd8HJh6OaqmMBuQ4rzHPPL7FHH3nUGggSE1JlThTlau+i/wCUnhfV8ZJjey6cE0puI7x0fHGxZaamOKALaervbrxzYPEpcri6jh4cFQlBnPnHlA3v9cJdiMoowmBQdqQOpO1ivA+ybeWudzTyURclIVbCz9vvrrb2ToQwx9qpg/KF+p39mDDVMDAYoONMnDzFVqPH7t6zm3wGLSE+3ArzE+3w4UN06HbV3l2nAHc8EnJdwX+BnwtGrFdZrwd6Lw9iATpmDz/ysP3XT35CGMtrLqREz8n/2oWVRgD0ES1pUcJSuHTXYIPEvmSZmj55ssWCCA1zLm9Ypv48wIsyPcYpcLnrIwDEUbBDFAhz4+SAFZSUWERskq1bv9XKyqqQbEGSQmBCE0gNB2nZuXn22rtbMDSUByVg6oKvNUz+YFE3Q4dDNMLU6JLxeKgm2wMPL0HF6cJMmo4DPtN27T6AC3Krs42H1tNvr79X8aHHodX5oMfnjVhVwN/0ko61P1ZdZY8+/LD9+he/sMM791hKRJTFQjESUCQhipo1hgrBQl47oSXdGCU0pnp50Jt5xpkc09KcxOx6eJD6KCKYPKrygOpfUz2CoAPpTgiCOvS+q6HyIO8Y7NILrr3Kjja22eNLXrMD5dXWTYS/BCDXClEmz0nAKioutt3ltbZ0xUqrV5Qi+TuJexA/MJJYN/XubOuxphMtHAfssvkL7eUVG2zt6q20IxbnQ7qVk/9vf/MbgtqXgXDYv2spu//BdEFSsRDhJNVgBY8cqXCU+uCDD1tbZbXNTMiwHGzBx3GzbccB0NTU6FSfffvQO6sqHKLFekW9EoDSM1JRXZLwvgSIHcJMB9tG+qAQGdp7LcKXiFWwQ5ZXsDsN1sG7AyLdv+gVE0UPpklcfIFwTQ8hwgJrVfHo0VY0boK9vPx1KDDKPnvHzTgIMnhPufGyaxzUXZBtCy6bYcve2mBTp0y16xdeZnHRmCV5pAMz4qp1G+xwVR1jcAQB6J22FoOEhLI1azZaZu5oS07CXErbN/BcK9J4V3uX3XLbbZaMjdnVjraR1Wmo1rWLmS4Ysa5walGFnffhhx60hx562HoxFsxNzLJ5mfkWm5JqG1BVKtEZj1dVOgdADQb5lpZmS4mPsz4Q14o/s4aA70S8MNOmTmIaRrplZ2XbOxvWY2DvsORBGS8oBCoaFCU6MJy56QKVE6YAmqiw/PARe+2NdZgrB23i+DEWl5Rk/Q5/vVYHFW7YssNuvf4KK8zLDMKSvMX/6Uhp6cl2J4aPZSs32H/99ilLYZrI5XNmEZuFqoajf9O2PfbIk0upV4R1d3VbbWOj3Ubk4oxp03E/xtNJo5wZMxYusAup+YEHfsMUkkhbTGx0YlKC13/4FZKV9KsWXux0QYhV4arCsaPV9sgjj9hDDz9q7VXVdkVMps3PyrfipBQ7inG/HUoNI3SlqaEbA0K0XXfVFYTAQDFMw+hiLNtXVoEgs9U2bNyE1yTKouCE6ZkZtmrjZjtSXWk5WaOdWkQvcADw+viZEeuBB0pHJ1Wsb2N9i7329jrbtLPMRuXnWDR6sXJqamqxcAwh0whjTfYnoTmY8qPwGvyBUsem0Nnu+Ohi+/VDf7b/uP9h+8n30mz6tEkuPPbKK+ZYHfk0NbRYUlKy5eXm27WXXcoshFJrbO9zgmIUSC2IjrIqrGSbtm6x3//+dy6UVjbkJDhUgPuhqDxbywTz95POC7GqhF+RGsx+f3jsD/b7hx6yuspKuzQu1Ram5dmYhFTrwRNTfawaH2mbNSMJz5k7yz7+kdvtqgVXW35mOlJjrA3iVqtt7rBtm7bYj37837Z5y0aLB7NTps6yNObabN62zWZMGcWcFNEpQg52InFLbwg4Mwh8qlZccFFRiX34tpstr3gv7L0L1twLYgect2c6npcbF11hOblZ4BFhLKjTijtoG4DbxFLHz975Eaem/emZ5fbgo3+ye7/yNzaqMBfjyGQbU5TLOIt6Fp8M6023aFh7OOU2tLS7iXnJSP0TGdfjGXIG4Ez7d+yw3wm5tP/Kq66ig4T6a98P2s79zjkRG4pU6aQr0NuefPrP1nqk0i6PSbbr0vNsTkIaume47elothNdbXZioMcmzJhsX/rbz9mi6651Zsb3NmyAHbdbfn6uTRo/wa5dtNDqYNHrNq63Q0eOWkHhWFxhmuKxGxZ3g2v8YEAOd8yPwFxU63l6ztAov+fRETIzkuzWD11hV19+Cey41wlvYumR4QFLS4zDcJKEVE6OSLiiczFwSe5uDHQI7rNRBVn2N5+7A+GnxV56fQ3x47H2pS/cZWOK8y06FU0qI4WqRTrBe5D24iCmkyBZYz5NJccx4TGWFR9tqSkB29HeiAq1iqEn0bIys2waM/mUVN6pbNhvxpm7sHv1nD/nQKw8GFJPEGaIgt8Acv70+ON2ZP9BGxedYItSc21uTIrlMoA10qC6vi6ropH1sLu7rrvGrlp4OROoOokhfsReWva2NbcwfjKuZuOP/cG/f9euv/Zqu2rebHtz9Xu2YytekdY2279nr3XglkvBsOAYsQDuEEtb/FaP2CzvJjI4krUQGMGWBOD0mvencVt/cvn4gBNgdYzpgV+N0F4IWxiseQrj85f++k7s3l32zMtv4UGKtb/57J1WkJnMs0ImghmbulwAio3kOAxzYjK9Jbt30HKJWkyHo7UzLB2pPWrLX30NVpxs/0BIbTGRFrKZSzaQsHixk1pzxuQ6L3c1dXHfgf32xBOP2/pVqy2zq98uS82xWcmZlkOgWBiIbCeAux5WfBzb7eTJE+3yuXMsnfGkpaGe3l/o5ppWMjYrKPy1d961X/zsp4zDnXYjyFWzjtbVWF4C0xenT0YajnRjlbsB2DzQq5rnCwCxWFmXMIwI2GxCgGKOPaoXKj0ke7nDFRj3hCDx/QhuRzCUROKWmzN9okPueCxijz273B74zR/s6Ak8VwHYKYgLYBMOY1OHMgLuAo21lgBi45EPspjWOAZ9d3p8ml2SlmvRXT326muv2Ysvv2SNyCFqj0YC1eZip7NSrChVqQ5L0vNLnrcXX3jRogk6mx+fbZelZFsx0XuxSIa9UEAXEmUHrK6LV2aUlCAo5TH7a9AKszMtfNYsN1n5U5+42T7x8Y8yZXGz/fqBh+0jN19vV102137w7a8zD2bAcpIBwrQZTlp2gAfOQoaSVxPv91yg8J9yL7o3/SvshwhEY7eQyQUHWajajbd6VlYufumwccRVXXnpJVilAvaf9/3CHn1uuXN2fJ6ZfkUl2VTMz5OJ41jPGhEmk8knBjNkPHp8Yn+YjUWi7kxKQzLvt/109BdefNEmEa157TXXYoU7Kwq8JryPX3XOINBOfVt9GYaDMWEjLPjVZa/aYGO9zUYSvCI920bTW2NkdkPY6COaUC7uflhgPw3tR+mTvVZzYRLiYxCECNss329/9deftXlzp9gkAFJ1cBfWmY322c/cZaXFtyMZ92EgGGAcJHQUqndLFMhDQiVUD184OrWWQ+ewF89AoSveG949h7XgNY8RC5PKz2k4qq+sTgIwj/ZLMtbTXHfmRuqSgB678OrZTD64x37KNI8Hn11qq7fttT/+8vuWV5BBIGW3Y6ttcLLtFTW2gGEqDtYcS52i2Qrpm4OoPK1oAMewUG3ZsMkee/QxhLFRTDSb6FXT613uOBQnOvYwEXzsPHeOFYc2XSDxsvKyO6rQ0ZdfRifbbEUo+rOTUm00E5GSEUrCodZB1kBw9ldYVyzIjAJaWhagobnJmeQGYdHhA90EgSdZVmqcRfV1WA77z95xqxWPysWEGLBUoh/iY8JxfTHS0UkCAfIO8yIYPIR6dXKQDwGAq+pIP36Dhu554Bm67PM/hhh5hxSJGEA9CWB5goTcbBC/C2gcVQhsHB1v0cIr7WNI+TWNrRgmtsFO2+mAUD1IVG3rm9usEbgko69L5ZHRlG5qqRgwCjGaTI1PtBkExSdjwFjLkPbq8qXWBJw8mA9VNnju1Tm0iw4/ce4jGVSGkjJxvTV4pbW12RX+0ovPWyxhnrMRlGbEp1tmHwjEChOGiwsexQalIVyl0zuzANrubbttz/4D1oWaISN+QmKKi8GNhVWHMQ4r4HvKhLF2JfqfkOkFrCEqYdvV5joWlz0/Kd1dfNEhNLS2wUqG7hzCTgVT8AGXh9i6z9qlS6L3QqkBzZjDvSdnelgwgkJP+aB19A3yklPQWwvz3bi44BIMK8yuV6iMYo/7aeexYyecgyOR6BBGlmAasFiO07lfGhFrl6Rm2iSsUN2NDYy3b9j2fbuty0V6+M9fnP1pFKts/V5SWVVp76x615pZr2FcTJJNR8IrHIi0BCS+cBkP6O3ypwawJsVynsH5eNQJbGq2a/suayWwOgDgEmnIXOa2JBE5L6FGs8djIyMxmKeAM2a6YD5UmQ6QdA4XXSHT4gUlv9b+/tSXdd1P0COsVh6YE8dqUK/ogH2Urk4KFQvlYsUDDCUDzDDQ1tcXwGtT6aakSJJdfMMCLE3coy0BnAfy41YQ6xUPpaagGmkUER0LwOoysbD4JFh1UUSMFcfEWwxDnOKrn3niKdyJXhiRX7uLsXeI9ZsswCqJ/UlnXbb8NXtt6XJLA2nTYxJtclyypfUSfY9gILeahCZF5HNi0SA1BeAURsVYJsh86pkXbO2a9c5oLvXj0rmzrQjneBhqEVBypchBLXTKdux0Gle4B1QdOjMhQPzgSS0EXQAdfHkbyKgm9HXZshV2DBOkq4u4RCQPIDCFyecaEWfdg9G2ff8R+9Ozr9jtd33Zfvn7x+zLn7rNrltwuUOsxmlxpZraRtuH3TgDBKaAUgkviAxsdBTgJUTHc5wOVynB9FgSFWeRqHcab3ds3+46s9orQhkaBj5Aw+WMctSiPEQj7hykHS4/bO+tXWv9KOgTI5NsGmNrNmpILCxXS/D0ouf1wlJVDb2jBuBJtRx65DhY0Wq8Gk/8+Tn8kxk2Y+oY1Jxk68cAIWqQ+U7CkXNYE1KiKZEDCClDFXGCi2pEEiY+UHItAmAqV53E6yiaKtKBVerpZWuxhiXbLSyHEI/pUXIy4hQ6Nzr1wQpbueo9e/zFN1iPotluuGqeXX3P3XYj8cQZmcwAoG79PUAA7G7fe8C2HiBmqz/K4hmnI6RegVBnFpX0jUQsgoiD8rMZy0uxPpW1MWMex/6zzJSYjMtSDhTV1qvhB2o0g0pI8tX2brwsb7zxFsvvLLd0qG9cXIIVYmaLgSo1ydghFZT2Axz9qTLhAE1jSUZ0OFH8OJuVx7vvYUSPt//7hU/ZeEJewqMJUtN4wnilsa0Og8W+vbssPyuTNZYynWVIFiI/CXAjJeFopHTyZZ2xuexEinQgUaz+dI3yk5NTGRUG7cmnnkPwqbOc/HzrIgT20KEKnAAbrQ57cCdBeZ+8eSGBc5faLJZRyMnKsYSUOGtvrrHdBw+7dhSNmWy79hygc5pNzsxxw1R4kK0r0E1sX6qUYCQ1KJXQ2KL4BCtm6koT5lfNQCw7dMiymGXoquYgqhYG26DDC0xDiBXliWKFpuqaWtuOfVMIzgIZYxF+slFDIhlH5BTXeg3Iwk56VNkqXixJiE8dCLMxUbFWBwV0MuXxmVdWAoRGpMnbbO6cOZaLsb+LUJI9RMw/89JSe2wJJsqffxdLTDGR/0Qd0LJQ5PrtETK9e/6V0/eykqkz6C8UKNJXZf5zbBMu47BNOYVMMfnCX33YfvxzHBoY/MNhwRKOcrJybdHll9m4MaU2fcokx3XS0+mUjLndDDdrmbT9xorl9t576wku+G87igyye/d+xlIsXoyfEQxdYWzigaJmP4kdR4mzoRMXRMZaYUycHQCx5eXltn79epsE1SbD2bzktUGI1nahybFiveSDowOH+K6D+wH8fkuH9c6ITYViUywNsV4eG/VAZ2EN1tcDJm0GqJEgNrk7YKOJjujDjtxNI3bCbl5ZucmWr9lpk6eW2ITScdbf2WevvrPaxUh9EWP7tBmzCRaKh0NrcrMAosbozzvWuUx+oZTqN1is00+OwmGDjjrdA9JR+7Ca7cVd14avdRSRikis+H6jiVlStP4tOAtmIdj1McQMoiNEx0YTp5xIQB2Ll9AJFKTWQ72OnqhmDahjtvT1tfbEMy+i33fbg/f/GzbuUnvzrTX26hur7bbIBMvEIRDPOBsJPFRf10nFefgXjqOoVzL3c3H7jYlJsLrkXtuFAWjDho124y23WAJ2ggjHqZwWHdI6v5Xnt3daudfDBTwEWqh0K4UcXL/JpkWlgNRUywTBMdJXGRf7oFh5Ragjz/OmDlS8g28AU5ooF3AzhXEAj08cum80URO7Whps7Xs7bf2GPe5Zhc3cgQP63q99zZJwDFgv0ydOSgAmSIHDl11h7nT4SKdeN3CdE6HIqS50MkFTITipaRk42N+yP/7Tf0J9OTZ/ziQi9dOJdpB3JhMkIsjwrEJgYDhwjmNWWlRKW/vsrbdX2uHKcluzbhVjaCOOih4XAfL7+/7DrrvhZuuEna59d7WFA5/inHSLof3hlC09ckAyiNiM22T40AYBoNPSbSwfl2YuatZ+2LbY8U64ZBFcRGtaOHCqae8zDVmexJN7YbFyyx1GbI+ClRQlMA7QexNVCjppD9Jsn1iZY3cglutCsW478xwHEXTTKKg6C6NUFBab7PgUmwh72hcbaeU4BKqJGDyEqK935OHJwxhuPbK9giqkSxdXxD3l7B0TZuO6nLvofgQnpVDkumPlAbvEs81QTiiOohJ5KoOJWnd/7h4rKJ1gP/v9E/bvP3+a4dbjUY51e73T5en//OR737PM7Gz7t5897KZLaoJzPxxoSnGuffPvv2q3Ll5ksfFR9u66HfbrR560ydQ9C40glvY7+7SAQ76iWskiQq7qKDehqDka+KbALzXExTFUbNu23d59+11beM1CiyUg/oMm4XMoiW2VYVhYv2a1RdCINLpvBmNTJD1qgIY5GZjKqoKuruypo5uArBa467pHj1UDI+goCfhas5F885koXIlCt7m+3uqPHcVh0O9ZXSQ9otNivgJ9IFbIpSR1FFeGxkdB57QkYHGRnZJTjShPOrV8t5p9sHr1Gsyhm2zhdTfYpVctsFthuzNYbuhA2SGc/OvszbfX2Pbd1SwUgh57SmpsbWR11DSnrinO6ZLJY+3jH77JFl15GVM5ii0+Mdrq6TivvrbSwWdaSo6lEe8V3Usr/DqpXkGgqO+oXmpTGHXUOJw4GGkZqFVJUKghd5SXlTltJGX6NNi26HuoeafU7tyngFy8nLkzFNgGGz508IALsB7PGFOQkmipWFXCaJhjizwXrp7Hs6qo6s9w4cYOSX0BOoLGRc001yy3AEJCRHe/xaESRILI5MRY62A+7H7mkjajrO/fvoPYpC4LjycT3g0QVjLAWKcoBpXhCgBYkkOOV1UhyEZaXh5sW9YpOoQTQ4NtFOVJUBFiGTDdGDqP1d0q0FHfeuN1jCSpTjiZVJRjEwoz7Jo5U+0rn/srq6tpJA64BhNoMzFKbbw6YJ29XTZ5ZpHlszjmHxDsEplBoHm22QQLaHmCHpCA7Gh7dh6w++7/tY0CCaPQHBKkr9KhwqifBxvGeOoloSnCIVXDi4yPqIdcl4ScAnfJAbGawnWCaM/aE8eB5wzXKj2nTXldaIrQSKSkglqYnrGX6Y0wM0tGHUiD/0eBkEFHrV72rsdx6M4o1RWuE+82Bx7F6YLuSXdT10kif9bWs/y4aBtFpEQ5kQXroZryg/h2Z03iSdQgGhimWexaHYbkssVDYiC3lonRb6x8x/72C/c4fbMPw3uUzJEhSeU5FqLxlfLS8Sx96jN32nf+41f23R/8nLUXP8H4OgfTYJIlEZuVhKCVg+N7yqRxPB/MC06FoRpHBjZjuMgEOoJ07AjMoXJO9Lc1Mm5H2/ETDfbCM0ucvrggIdtGMU4n8G4krw9RLK+oTo4rs9ex64DBa9L944F2Op0iGQm5FTPjseoj+H9bCaXRKOxxQQ6GwauT80iUKcDTs+jp9biUjhw57HpPEdSRgeSowocmUFEzsRZRqfaOa0Ilcu9pzPK8O1QniGRJhH2U0CtJlTJkVkuBtRdgxRqLoXwHK42uIxTGxfiCPANgQM1rhTiA9F02/aVlZDIjb5Cg9JecLBAF5ZCll1QXjjQsuNkBdESZLeV5SgGBf3/v5yyeSct3fflf7Ovf/ok9/cLbjGebbPN72+BQR5gMVsdE6iaWu+0k5LTN6utbrbmxw+prcMM1tNEekExHEoeQw6ALW/kzL79jD/zhGRtP3cYnJVouscpy10UGKVIwUq3kdnR149yHm78XFccAuySCz2Vi3XeAydNr11GmfLV6WxQeBKa7cv4/box1rBjjfDNGf63pm4b1qAQVJ4EGRcAaBTGvol7GDqkqmMqq/q7iIWXqmnqppEI/OSkNNhePXXYcJrUDsCB1iHfeXmU3XbvA0gh0c/xd4w0Obo25iOHQOh2GyIwMEFNUPM7u+9UfCeousGsun2dRmCL9KRrqBKqJA4PqC6sW8WlKXDaK/ze/9gVisgbtiaVv2qPPs4g1SBqbl2Jji/OIHkxiwhgeGaRUiJXmAhHYueblff5zn2VR6kkYIrjG0GLSPfeU2S8eeMQJPQtz89Dz4QBtfbjoaALv6s/r3a42HAsOGqa8+gk+qq24WQz1QNGzQqIzWjDetLB+oya0Bd90MObRcyavhOHHhkyKiunVgpV7YMUFYIxoXwokYp/CPKHJq9QwqsiE0nXVAdA7AQ3ec6pYuMZcWqFjjX0KTUtlvB4FQmfm5Nph9g/+aYl98XN3WRrAlzSrQAS9IS4h2646ldiggrlvuOoywlYb7Vs/+r396J9iiP+dBYFTI3UEOqFj/kIKnEI6qQpWbYSgCWMK7P7v/7195Por7YHHlmACLLMTrX12fHtFkCrEIeA+GqfZf+iyKfaJ2xfbJJZMCGdoGFQZ6OaHK4/b93/037b/yFG7lcj/SdjPk1BfolRPCYLaxAepgxCoza2S6teL6/L8SLaJhpPFY/BIg0tl4GGKDGsjdrnLmhnDpVaGS8InOfi5o5N/xAd1T5uSjxuV6QhJF+VT1WTljpZWi41AEJA0rDcYr6iz13P8HPRCSBLylCT16ZHhc3fZNc4vPU4NoeGjsJWOw/5cwbj+2B//bNNZeDIiCVYsCRm2JsnRzbijt8thr0zkDfr4bYuthvDS7933W/tB5JdtHjqpAs4lRcpI4sp29VFdhCSPVsJATG5mkt1+87W2cMGVVk0HaWhixXGiHtpxSUZiMo1jeFAZqQnRmDmJqkQeiELy6WdO7gCdtL6uxR5+6kV74c11FgNSEjELJsYmWCQuzHAQJ8iqPwnUArLqAh6D13TV21Q9XfccBej+6M+yUovVN1OfRvAge7yWtXfSvvLxoMibXhJSlZSXkivWO3S/UKxuaRoGcUvYRZmjhn04Er6Piw1gaS18x+f9HEJePvXQAZUStFdBfuFeY0VRYj94Oej8qSB4DOs7rafyP2WRkE99+Babt2DeEGIl9fbj4AZnDjJaBFNUnJeTbH971+3o1F32j//5K/vn/3O3XXXpdKIcpB5ALZQioLkpl8KqCtWmewA/FlYfiwE/O5tQQ5JYtmhaUYaO2oLPKRPNkHe0xTpPHV0D9tzyFfbDnz7EyjRwM8ymx/HOVMS0oq7ATLEkCbcuTBaYifKF3JPB5p951KzylSKAQbS0D+orVlyHrCNLWAyqkPJ4P8mxYrVbpkFRSBSFpIRhboO1qRrQq8vXr9JZC/EeDT6iE7oNO72r4UlbL1h2EiflKcJgPONbA4Fdjz31DB4OvEB4gzBbqWBgCl/W2MafxvgB3g2DLRYUZtnn7/okJsun7AcAurXtY7Dpucw0oFs6Qc2rgsp2yVWCDAT5fi2uiSBEO71ew456DNJeRCTvGfcSV2GR/YzdNVDqS8vftn/41o9hkcojDHt3h+0F+HFUMYKvgUTD5ZJ4NhE9NgB3UId0eqvyUrlKXHM/1GuoalzRKjcR1FvVbEJw0tdIZOXzknspeHz+O0YoAYveRYV7qaiWEkjAfSUpTUq+swWDBMePz1mGR916XMlxA96RXtsNUhTo1gqnbcNRWd7eQhxym9XhyktCm/71E0tYx+Eyuw3bcVQ0M88RLCIYBgbEBgGM6ik7tSASwVkpuuiX7v4wY3TAfvq7P6P/HWP5gsvdhGitHCPKdb3DATV4HOxlzpLldGFRGXWm7YEwAVLPqRuxdALAlltv/yGcFYSe/vzBp9z6GvHZaZaXnW+deIGOlx2y97obrb662epTC2wGweOjCLGJxmcdr07I8CZfrBCqnL3kHfmg1N51AOqhYy28fbSq2tVJ3UGb/yyH552GpGIBTzzeFXTer/sPqrIeKLX3K0KUifXJiM6+Cd5Qix54DETtxym9AYNAOdXuAgkx2Gzpqvbjn/3KcomDmnPlPKLrWYgLwMhN6Ork2Crl8C8USKAaO6bYvnjPnUi1Kfboky/x6Rbm5Nx8q83EvZbGt3Oi6Zx8f4an2YYQrDqro4gZqK4gF19pwOnEYc4O3A7SDpSX28atu+2xx5+yTfsANE9msxRBRkkRk8myeR+pPgx9FsQfwMjS3IQFizLaE9Ms3xlYwoiTogtJunct8BDqo8mdubELxkTbYoCDWHIfDpJehRwF3/Jh6S5cwI9DrJ5Xr5Wg5I5phmzCA8LMUFJPJlGSX0Xvls68K85FxaEqI7bbRzRCCxJYIwJIGSus7W5jGQOCr3cxE66Jnh2GwJKfmQu1RDKGddqm3eX2/f+4z7721c/bfCIUEhGw9D0cLTo9SGPDkTY03jsKVjmYpIpRk+79/KdtFmz89489Y9/5yYO2cP4su2zeLJs2eZxlZqUy0zwCCVMVF5CDbYT1ORoBmOJ6ncw5kjC1e88h27GngpCgDbZ60y4vbosWJTBkpFLX2OQc2pXAoiJRVjx5BoJmnFUc3A6H77YVTZhKQfK8ZKaDcn0AhCVQjli8YDJiUjukVgB/Wah8uUTPnvEd7vHoWe97iOUpxz6DPFQvifV5/ZoTJUoRTXqC1HCROlfQmTqfGtKnjR7bSi3riTg8gnluP6uG7mC5gjKsSh2453pY8ConfxTLwBexbgOfU4FdhSORHtizw95au9WOVH7b7kEFunTOLCuBQjQ0yO4cJusPQ4VWRlMNevCoNDTU2Yk6rEHxqTZr/nyreuVV++8/PGtPv/KGXTlvhl3CItYTx5cytSQTc2A0xi3pvoCaTtHR2YsZtRuXXA1LDO1zs9nfW7fFjtS0stobKh8GmhTm23TjUOjHAlbNtNEYggNyR4+1+GwCwPFTj5o03cKoX9kuPGK4KHs6GzFg9FlHSrqNJww1D4k3HhhFQrlk6eqtvRAYJFh3TS0CdA5h3m+QkAT7EZJw5Cf/WDDxjzF+eKxT447TG93THlLVz/xK6CUn8QmJXB9GvodYLS8rGbLNsd1BO9LPPJy2JttJiMk+rDZtSMARsSmWP2aixWWxFB6hmBEguVOGBUgmc/REAMKSB5WHbO/hOvvn7/+UKPxxdsOi6y2HKSGDhLDGxYRZEvNuUrFCxSCV1tY12asrVtqGzdusCf0vjMDsts4uvC5xfDCpwZ588S370wtv2Gjm20yHetPTvfm4Whm8Cw9TQ1OLMw2uI1ZJsoRWtdHUS7fIJZTWCgXHB7pwZCAYIFz1EFfdWnOcdTvbiCjhGu2JTSCsdvR4wmuirHLHRqvAwNPe28JS8112NUH185gvm49pNgGpWjCUSiaYeghwo727hjDh5ByPnzgkuGf0XCgVe3eG7/vnDj/BE+UxxIoV4M2gEbwFsqgA/x5ivVqAWVVO93iM7kVbgxRq1oKw0AByj0GVB1EDdrc22X7Yax29OYA/NAcHe2pesevlAdxbXYyfvXhBZV/QUjoRjLN54ya5ydHtMrLDL6ITmd7EEgPvbdtHOOs+GthvhVmJzp02AK/fTJirQl0zQXIMVijVPppxLh3q6AR5+uBZF2bFg5guyyuO4ntNgEMk0ym85W4VOqptTGmJTZ/J/FaQs20jwWXbdlos3CADC9z0lEzLwvmdyLBxHLfj7trj9t7hAxaHjXkgp5DPxpklYI3KKR7PN4Kwge/eQVRnpR3CbxvReIKoE+qUnoIxAqoVRh16g0TCsWApmHqRKRpuMAoJF4KzntbPeaRTH0NyUM5Bb4wbd5SlkBrsWbwhPAavqkbuWGNoD4jUtI4WhI8Kxq/dzAzYjQXrYFur1WpsZDmgrKJiSy4oshh6bgDW1I++h6zogrPFITQbXFGLXYrO4Ho841gqjvmujnrGsUibwJSPWz/8MevTIs8804slrIfxcNP6Lfbi8ytsAl6om/NKrAS2KaQ2IKAdYQzfxqz6fVBWK0BqgWNo/J9QXGgLr7jcSlmwM5Uw2UQQFou/OQZbbw0Ts1e9s8oaYLejsAvNx4Q5FfY+PjYNFTAMlSTCKugYidR1H+y/p77GWhF4uimzLzaZ4SLRUpgjPI7OUENwQm35XjvW2W7bacdo1LBcqF6sV9ZFgRA8O7gKIZIZ+tCn5bfVvN3EJEJ4Sbrnk5q7cAE/QxQrhTocs10vhbRAdSgZTgASWQvRbk9JAlAfWwc9vRFJ9zhrM1Qw03svgN+K1eowwB+APaXlI0GC1NjUdNbSR9jQRCuMAKJ56Ycy0vewBHwfwoa+MNnLOCalPALEpxWUEC+VYtt2HrRf/PJXdum8+WxzbdK4sZaOUT9OrrzGHhudRhDciWa7JC7DCpB8Y0BgK3mPTY6zySyFUI39+wgTpXaj8FfIwlRTbwf2H3SuwamjR1sWCEiA5I6wGMiy91bb2jfetYyWPrs+u8jmxCVZNvVNYByW7tpHR09NDLNc2p4HTKpR18L7Mqy9BWsdSxZ0JzEVBJdkDBJ6AWs8SlWr27fe2oBZN51tgPY7hPKukKUBUIjWRuCiVGPoi6AAhh1tXiCA96xgf6EJvZgCqLRWTFEcUAeVqAZRLQC6l17mDBfKlR4m4aiHCrSClxMIRvsYz/ZAFaKMwwC1BRYXAZXmlo5HNRiDQJOMDitLK2VIQFI+SIBa06kTQUMrmA1I4pVKQ96eRo0ZDVUnipl8qURebNuxx7bv3M2MhGUgdgxUN8YK0rJYzONdO3b4sC1ILrZslndPomNFUWetERWHwpyB3Xkc9W+NTLV56TF2kKXfNyOVb169ngjMd6wkh0lldLoEalWBD/QAaxLPo8zrC8fZRJBQ2o2UiiGjl3YNgCQXBdGFIAR3SqVjHaG8CMguwNjYz9TRuvpalmBoZ02NFLxisZbEEgc1dDbm67O+hkc/4M+Np6JWWZkET+n4PWCcUDFHNPoqmKIVtXiokt7RxisXlOQ5ckmxQYqQiyImuJX5Jw1Usid8eOa1epZYrwwM5QR3bYM6t/HMAUx7x8kkjJ6aOqoYaiuyxIwcVi5LQKEna+y+WqVsAEoehEpluuyEZfci7HjTOZB2HV+iAP49aVwNgYMgcOVMmAFFNNrBI+UscVBO5MFyi6YLd3awLlQ0xgJWaYkF8AEM8YiyjJmMzQAsCuuP1oFIINQzEXNjJuN1PtM6R4P8nXyYoaWmiejJbtSVKEsBOePoTKlwjBicFO5zL4wQYpFa9FNGDDf2UU4CsVwZsPB+ypfgKQuWOr8Q30HezJSGSCIJle7EPEvZzCKI1lgOnJ0hQntaJ7DL7CktopP3O+EK4mbJqFUZyCSKe/ogSfZzB0RRa0lJseUX5ls3gc8tIKKHhnkxsaoE3FMSLz12H2Glm1oa7TBIbmasikPCzUR4SB7FbFDGLFFpJ+rEAJjtZ5XwThYT0Zr+fQgfmmtLtjSZDAGG5wXhgurB5m5qJz1aPZknwxjr0scyERrWPcgkpk6oA0WECA1EBCDWDxL5qqZUQWe80LtqlyYvh0F5SXSuSFZ5IRLF2qHGTnTQAahoUu4oovJTrKa33TY3V1nbccJ2opssnemhbTyHGk5+cBDqwT9H+JRBmpYygAc7tb+fzgPpUmMkXJ5RAEBLT6t1Mg7HAIdcWHo81BdGx1PzaJkb1nQk/3UvWxtcspXOrwXEEoFlKtEeTn/XQ+eZ1FG8/L0XhmzFUbCtXFhADtvh/WUU1G1dDOgDGA88dq0qQSmwzXrGnUaNxaIIwkeyGVNiUnJtICoJJzjWXCRKhWf2akPQ6YfdOv+q88kxutBgORjElp2LLVgpGBNH3jUdaQU3RfAPSlrHyhONNB1DPG4WiO4lMp91cFGxGP8AziDcRNiUTq0Gei4HaIB6ym0mi054p2zhokoi/albN0JWT1Q8HUPWLVE7xnjGyVjmKfW3gQjaqjbLXu0iM2HzyluxYdE4+jUO0q24JvsVNl+oLwzkDJJvFx1QwfZ5CYmYF7FSAUslCcaOYtlLReylUzRTx2My2iDBx8IxY076psDJCHOZhPy4+nF+6n7Ibadp82mw4mzE+N1UogGhqIN9Lz1UsUwMqc6VFkE3jsaSM8CggN8cv3O8xTOuDKID9gJAmcNaYNNdIFQfbVCDAKvHbh0I1DKQJ9oSlNyxDjVe+ececmRmVZU1/oJdAMp7ACmSMSwa63t4BJ+whr13x2KS4xFNtBZC9edRvhg7JaFaBaDSBPTcLHThdowGx7uqGFdrrRaOUocXp6y9CbYJR6KMeriNk4Spj+SCAXUatm68Ooh61gE3iyL+WAiXyVJcSLHA2sI5DtCRA7DqfIayLKhbMyRkVXJ1gazDeMZZ5ugYDNvWCPs/BqzCkc6LSorddBgPOGp/6JF3furvqUiltsN6rAZzLXwxDslzGTfqQUgjhbWD2CSAr94YDvXEILVmEHSdjHdjkHGkrbmVGJ1O1kFC56RziGJkEVLcsBzrao6/qWc7ZMI2Q5Mq4j3j7b1zdzH4I0R7fzpSgJgWs47GENFEPTqZcxoH8DS2+vmoBE/91xGUzy1xHgkVPYybR+lFDcQv5cZi9CjIxq6bYa1YoN5k6sa2sEbLBjSFjL/htE3hPVqYpLsrEkNLJAuUYbTILiC4zlvbRmOw6wHqxOSvOcEBbOIlyXkIcQhPSOeeAVN14T51GQBWEphagFM9QmQbHKRwTIlNmT6VcdafDRAEF2+dKanFSso5NA1RrKgiiYF7zOjRrsecwAx4BF2wiB6XRiUitcE+JU6lwg7TqXAiVpnWulprqqlDOCECgtiQcIwNkbB1yRFib37BQ4VSA/VcJUeJ2rszHQSv++fBve5rFNPmmy0VshqucBICv1pAVBIP6Z6Xm/LxchVye0BoK0JVPYJeGZPMtiMfJE0osdLx42za+Ak2enQpenWYVVUcsc07mNuLM2ELn3pJbcc3zfsJLIgSi9ZQh+PiaCsqFGwzm7gtI6oScwIjABQIcqNg1VpBRksWxNAZ8ggBcnFQ3BPlq91CsNa7EGI7qWKTEEvnaWcvwirIK0CKhhtQ/+FWcHqBycnhHgggX2J+SsaOtUkzZ9iud1dbDWymDsEkG8lOQVcKdo6CMuRmy0PYyoKNaaWXJpCblMcaR4xXMjpEcb+LHh5AQfPGPJWgZnmIG6rjKadD1/2D4H33HmULsertEjg6KQOPtzWFt9kRVKeUGIQaWKOCsZ0qQVmSOCV8tTB8HGE03sIcoi0g9QA+2U9cOtc+fddnmLycY3EExoeRn5YjuorpFlrBRouoPIGPuIjpH2PHTKBtcRZdV2PHKg5Y045dFiA2OoEOHoaULEFlEJbg665hawAAJCJJREFU2C2ySQTj/2jWVZQpMY6hSZGeru6MperMqp/sAZ1cbEBDqIcDQAeWl59vhQWFPCv0e0l7/zh46bx2noLlHqVAVJ7CklKbyMrgW1atgR0P2AkG9CLYXiKViWCc06QiZpdYAb0xi0WsqulpbTiG2xEWUnFZBWDVkYxhEQgicty7eGNHPbQ+SJF+zU5DtH8juPfvuzxAmJixUxHYd4g6GOfqgOpBgvCK4jJdcLp0cogBhCJtctyAKrMbE+UGpNjmdCxf6KndVVV2uA67bzfTMpBak2DlhyrKbOv2bTbzkll24+23W3Z+gT299FXLnT/XcqayXlQg2kYj2cfj943OwZjxOp+d4UvQOXmJdHivwuGU1YG1KbK73aaxWl0mdvA4xmusAdQmyL2ok5Aq3V6LnNXCtlsZ43Pzcj13I4YVodIjBf2+v+QQ6/cISarJWHYmT5liqfl5fA2q1sYMJGCQgCXRIyMw0kcjXCQh92g6Qw6ejxRUmFZ0t3ZRLeNOOLO8o6GeCCigl9VB9eclf++XdnqFaTMd4/TrYkpqqhub/Ns8GA47bqW8MrjGWDpgjKMe2aAR/tB9jkKBe5jNVgnkB8YX29g5sy05J8eMr2JuhepeeXWFZbL0e1JaGh4lfWFkleUXFVhxcaklYLwI0DkDBIu3U04bulIcXCoT9j+Hjr129VrXMglLMDGPqqiD2HASTvti7MNy2UWiykjWULvUPqlHmuDSxhhfA9smVsL6Ub2mAnN9blUfhFI6M5Tc7XP+hFCsMmOOKxWfNn0aK6tNtzUvvWKVWKHqsIVmaXKVxgp6pQSVNCqTIyEKnfYoxob2+jpnTYqnYlIDZDnpC5NVyet9XlXPUd0QzIq4hWP/De2HAMgdHfcB+O7EBFZiabaNsNiO8BQkZ5zefAuvApZ4AKGEZdpsNNM6Rs26xFIKYXNwn8l0yoryCr6v9wxrIE5wUyfHT5xkH8MJMLp4tEOogO+6E1ysh3b3wyFQiJDcB60cixdSo6UUlVAp1cRjr70y6uABGoOpMgM4RKNJKMhNSFV7vM7J8EBeLYwkx5GGy+h8fcBxCssDjRpV7CITQ9tM5g4O2o+U9Kz/fOh9sX6XvGZQNJSWR6TAWOaFtoLEAyCunE2em250LrHCaKg3EfLJpfIFqB6x9My2uhOw5BokQi8ATQYPF2XnMETRp7Bhv9zQvSwzYmsRqDSyUnUyN0bzgMSKpbigVTuEinIdSwZAPXycsIWvL6/qa7fHairs8bqjtqSh1lY011sjZsPJN95sE6+70WLHTnTRDa3R2LGJT55xxdXWTPzusleXMXP9EBOv8wjNWWDZUDQjjrXK3KmOjKHfG1pUKOGqlZW29uXniIPOZSJ3FCE/dDBxBBDYS37hyB2lEEIqMFLMsFtzw3URIUi8B1sA79QiKVfhq66GapPz8my2ZihgjvU7r57TFpqowUlIHukZ//kQivVRa3zqi8VArphvky6ZYSe27ASx7cxNwQ+q8A0UMFU2TuwYlltMCOZBpLpWxpZOxlmteRQJi5Z9VJTrpVOr6Bc/vHduQjXcYQ3roPKsrrTUaTMxPrA2sKiPzqXkfl1Hwc4qCRw/q9yGndistXSPvjGbkU+IzU03Q61EPlL3DgSZXsZ/yaWx6LLj58zny9LHbePmzUzeWsXKcUUsht1qh8oO2HjYYhftiKNjRKOny8gh9aUDlr/6zZXM7em3tFEFdDRJuB5VSsUZJMJwVCCOqZHRTG5GSlan5BkxIkwBbmxVR5D17gjS/D7s0ydQKadASJOnTmMoYRFR2jcStNRmr/WCwMjPeHe8X4o5OQm9UbCfmbjLLr/yCqwiUC0zzSsAWjP3ZC9WyVH0Rq0ZmIcknYd1SjNNegBMH6xFYZxe0SNV8eTyhs541BuHoEwMCvroYX9ns9NV45hrEwYCBURtylU9Wwb0XlmxAH4CFJeaPwrjSZwl4Yi/ZNENNmbOXAsjyqFfU0cQYQJ4awbZZJqPwQk+dvps3ID9tnrVKljzYduxY4fd9+P7mJSG5a213bL5jGgENltZoKKhrH3bdtjeNWssLacIIMOWqYmkfpkue9qbrb+13ibCEQSTeGzikXA8V1OeUZ1ljGhCQj/KOlYV/UwhkdBUWGA3XH+djSouVm5YweBKbB6Zae+1l90FpVMQ61VXYaHZ6Rl23XWLbNq8OVaPGlGNkFSN/ib/qwSAcCg3gS0bnas0MdEp4r302C7cWDKiSyp2mDrP6qgBSkIuxUMGknqJVkTC1jydCFQbh1huaU/RUIyONfYhSKk8OlsvlC59cMzEqXwPJwWrEfYokO+sQmL1gMrNSUA1G4UaM3HqdNu8aZOtWb3GLYb9mbvuQkLNsxM1NRgKWP8FbkHOsOAKZI5n+D6wJkqjzTP8qJriARG0txsBMgzkj6ETZsGi5RvWckAymQo9vewVXVKLYHUQWO6GA9VA0VqeYMFClhaic7pEpkGm5ZD6/tDq6fxehiG/6olxCBmzZsy0BddcbV0xEbaF3rgXS00dwOlRL4atReNETGE8zMW+mQabHmDWeh9ChRAr95lW5ZbXSAA4a9KgBkY1brqHOR0UYjGYRNL7NX1SVi0JL0LN8N5rtt6Tw6GzpZ2l2juZUNXE5O1D1oAlSXZqrfKmQLiA9rBsmU9l3I8m4mESrFoeHH24WOrZrbfc6pa1r8BAIW9XDLJCA0aNV15Zbg0IQ4mwZ62WozLDQLq+dhnAKzTI+FoUnuCQ6ixNwEkWKXAHFXq6dztzhY9Tchl1UtxjDmtc3HjLYpbtG0WzHdN2+2FN4qxQO+vNUyg2SCy8ouExOyvLrr/+Bps8e6ZVYrXZKb8rA34LjeqFpUUw6ywW5KaC6EwQEAX76aLnamaawkPlWJAhXxWVUDRiElJdEnJBHAWrh6unhyFZu7myXg5cHU7qLA4AXFQJCt2MQ6KPQqCrra6yd5Y8Za8+8UfbjgO9rrIcJ0Azy+DxnQGhVEZpAR6kKGRn7Iw5+H13sFjIe6hoPENnPHr0qKUgzEgv3goLrig/QjgMYad4iBS8qXrKaaB69KPP96EnjyOATbBQ9+vF0tUJIluxq7cQQdGMkHcMC8YBYLiPjjLARK5FH7reFi681k0VURf1/obb+EGOnPCkyoUmAUx/4ZgNZ0yfaTfTiw8SeVB2vM72sNB0NuGXmpIg5TsGGCUTDpKNuykG1aiTcVYTg6Nw30UgQLlpjXRZ2WlV+bMlUaMYrBoo9hcNgEXvslELeW5yk/LgX/UTAJXoA2CXRSmxsWYXllgLcUmtDAmtmzZa9f49lo6xoXjqVCuZhH5O3FUs8VWK4pADPYKQlkkz59m+zRvcCq0LFjLzD8lYViipflrRZePLLzBxOhMEwC6pi1hlD+OjXGtay7iHbyIUIB2VMBcpEQ6mL0K3gFSpNE10In0LpBYbaxUS804cJJWoh6UTx9uiRQutBMFJHESdWRA6FRdcel8p/Lvf+973vAyDQCJrP3MdSWHWythlNHDDzh3Ow5KOKS2Z67HuFUVVYEVBYDoIQltoVCJrHUWBaBnSuohf0rJ0GgO9Ek6tp1+aYEaJbMJcH1GEQm4mEY1h2GQ7GZMUzRCkU4do1c/9aZzlNRkUFGmo8UrUq1XP+zDXNWEtOnpwv5Vt22INtXWOuiOop0yBscgIyXzeShS3ecN6Ky4pIXqx2fby5REJYm+sXMlayg2s7cQq6lCjsEpxUDKmQjp3M9anjqNlNge35UQ+WKGVdbTKeiW69H78x7sIzdnI8PQ6quB2yqikDbKIyS4/nvUkCwrzqC8RnHTMkdAabCHtHOkuF8+Qwr8TRKwHMGUznHQma1QSiNUH/8r4yuLuinLrBOgJNCoN8VyihXRNvK7EAbUSwNVmMZnE8KZkMDYSzkkgtZzPQph6uvfjVVOSrUM2HcMJ2zRYK5lrrms/nUHCUAaIdQHlCEWa6imdVnXy+7ds0w7S6vWSKBnXhOAIEBwJgmOIvwoDyXLvtWAdayAS4/COrVZfdcS6tIYhVJTA+k4aAHawwmsz32PfvXuf+9BhVdVRqzhSyVoUWS6kVcMKVaQOmAlBRA+dtr76mAU6m2xqbhGzHgK2v7HWNiGP7ASxOxE2V2M4OUQYTYDojSuuvtKKxox2DnV98HDr1m1Msm6wKahX+rhwKOx9LFwIYsXvBE9tIXrscFY60lCuTY9JgLjs8ivsk3dWsapMnR08UGaZTbV4ePhaFCw3ajAK1affchhTo4jL7UCQGJCrCslTxnXVWAzWZecXozIAlEsIWxIwNBlZH04IEL3QB8J6yRNe7uqhVc0k2YqgvXqFZETG0oMFdTcmA/R+zJ86VoxwBJadOHyd/WnpNsCqNQoCKAO5ZTu3OAovGFXKjHnCUTD0r1mzis5BuRQUzVwcrRwTSftVN3XMbihS8kIfEQ9duCwH4VLprCBeLoRWMYdHcVK8Lw4iVj4ZZ8OcuXPtKj7yMA0E9tDB9uzdaw8//Ii9+OJLrH73qk2YMNHu+szdhK9qCrSKPr2Foa0d6TgISYHa5TECYgU478/PQMBMQ5C4bfFiOwZLfuyRR+0Abr1cBBKtZlbIOBXGUurRCFAaL0Sh/UKsiAl1ZUDjGchT8lgtQyItcJYmHhoACtJb65lplg3wI5Bg++jt+lZsBA7/CLxLUXj6YzSFTC0naRxWLSXcuJa4H+4z7vfRGXg5qA/qYc4Btti0JhN3d8JlqJvirtob+Cxq42YXoRmOpO8kZvCq6aPJUD6f+HLf3QOvzLRUmAxeGTiWYrf0fnwUwIHj7GgkkJw2RqDqzMGKdP2iRTZh0iQWm2bZ/LFjXairyld9i4pL3OQxIf7ZZ5/j27pv28JrFtrEiZOpszoznVJA/wDpNMQqu5GyFPsrLBxld6Ln7Tt40Ja/8KKFN55wM6/1cdwwximFdEQgMchqox4tp7ajSpCHJgG7PTln9zHDYCeKALlatezEoUNYvohuRNdzPhDGKakV8D1CTpjCD6t1a2IAaQHXKfPBa5odqK9U9TEkDGDZAZtB0HjId6VTJwFXyxHEsTxBMp3SGSvJz9ONqTMIlAuuFTdf3Ymjzj/aBcuOYM5wn+KuRL3KmXwSkG5rmVEQhQPi85/9PB+4uMZmYnfOQ5eOZgiTPq9mi1Kl0apjy8I0kWduv/022P5uKysrY3rJLispKXUqoss7WPP3uzsNsWfLSALQhIkT7et8haIVdvvO629af0u9G0vzo7NcUJtifpvxqPRKqqT3aSySmVCRe2LIiuhTkpCsKZtCkhAe51Qj1AyEjeaWY3ACFtwgFKWcBmtS8YmKvQ6JAqafHLUGT0TB7p/7ihvK4rs6+s5NHDMRYhCCtEiJxmNFdrRiGqysKOfjikzHGOpsLgeLQfLtgRJl/VJyZSBDJMn3S7jLrNmXWC5+01bG+5WvrWDYaeFzK9PtH7/x//gUzfWwX1Z5Y4jqZVw9UVXNckM1VoH6VVRagrA0nthjYqzpVNLx52AZm8NHMf742B/t9ddet8svu5wPNClqebiNrhLv4+e8EesXpUrPZcz4l3/5Z6TUHlv7ziqotN7GY8SIxT+qWW09BGh34yMddOwYYcexW5nKTq6hKEiIrcWf21ffZANNlVA2ki/ICWDFicXHWn1ot2umluaJxQI1duIELEuZ7jPhhbC5ouJiy8nJcwDTOhWSLrVXKIvGWHVGWY+QqMhHrJuPMkDZHXAVyMgChNoe5xPje1iFdemKFawdvMPyoZwkhL9YKEsfSurgQ79Vh/Y6JP+fe79q8+ZfyjoR7fbnx5+w//7xf2E9mmhXMIam4vLsZQzeRV5PPvGELX95qd37d39nl15+GR0tj0lhQqoHBNVJH04eB5uWhHy44jCCWoVb2tYJaR8QueeNWB8lojjpb+pd3/vud+073/kuC06vscqj7ZZJb5Tao+TYJZUTYMWOet3Y4efi7XVP404a/tBIBJVAXzFqDFYrOscgPb66Ypd97I6/xvMxm89ks5ZSUY5brl0uQRkRolG5opG8hUw3dkN96iyhySPIk6+KQasdEjikA/cyvs+vmY8kn2KVSMHpRFVkjiqBU3gxw9KLBssZb3lW3h+59oSgqDsj7IlH/2Qrlq+w9m+1Wi9m2K18XvTpZ5/BepVhj/zhURA3DqFMAiF1g2NITdIQpNVu4hHqZs+ebVPRsbdv3w4c1/IVE30jz5viEdqOCz0ejnkKvukT1cmg8G5qfokAIWODKnvZ5Zfb//fjH9k//9O/2Kq336Z3Y3GRUYJIfLekOqKuM5JDOUTYnJY0RkqHS2KcSpRBA0MHL6JAYbbEwFB77KBde9119vGP3cYaEx7lO0TxI8DKiScWK8O5A5quOLZAh+K65AJhw/sT0ocRr8BSIVjjpdbkj4Fl52Ej1ky8QbFSdRZUOlF6PAHcgwwx6jWiqh6oUt/sK2Ea6Ec/+hEQ+AfUlnorhtL1nYAvfvFLDkY1fJd+27atfFSqxwmWsgeIy2ivzES1mei+aUT/17A63DbWvKplSeEijBanJuFFONFe27mSWu4edL2Y47PtHTujwbLVSgmR+W7e3Hl8o+4neIKudMFeekb24QHCTvjCpxtjPW8F5ooglQwVCovWWFXPGhR1rEp2FEGluq7OqnGcawJxDyublx89AuIwJpCnM0+q5/MnqdFHnCdBitESLUT99KkVUYiHULXQR6iPYrgOdxWu6jFoqJZO5qk8Ua48501CNuhsY04vay0O8kkzpZ07d7pndRzPeHz9hz7kKFDfgZfcUJhfaMnEEusrHUuQeJctX26bcDJUHq3E/9uMYMkMCN5Vp1SHjEUOcJ8gBTaHcf4fxlbgoVBQ0iZ0esl1RP+Eve4M3w25weGIrPhMvcLvKdqrSI1VAursSy6xX/7qAbv//vvt+eeedXqii+WFeiKgGmANoE8uWHqeVB5RnlhTM6ZIqT9aeERG/3A+49KDpFnO2NOD6kNQsMvAq4P366PLz9q7enI5ZzrzQaZ39L6iKzUsqPMonLYWOaGftSS62+mdmEoDTvgLsA4WY35QWFDnKSgocMOObMtqh0KCkgiO++hHPmKf/PgnXQfz6hDsZq6y6oQeQSXwbCGz/1JYhqidcVsx2aFrPHnvnvnXb/upT4yI2FMf0vlIQFMjpLULOVMmT7JvfuObNNJsyXNPo4oQeSTd0Y2x0AcZnFoJIddPGhMkJQu58n9q3mwS6tP69/gOLFKqkkDj1STkRXfH+/HuekDzkR5yO/i+/6yeG85HgXyK7hdiW+hkvczAx1pNfVhZnSNnTuTx/ahjLYprAiFKkhNkwDlx4oT7qnUiq6IK4fo+7r59+9wSCGLzSbjzMhH6tO6/ZjS41tBWmT5Hjx7tScM0wHE3AesDpvNG7EjlOMA4CzxHNDo3N99mzZrFaqMr3MRmIVyNFHsMBeKIeZGP98lPnoQiRM36JPhAS+0QhXiI1dunN1xXQq8OPztSaadfk7Dns3qn6lAHN0RTfwlr3mRkwx1YxjcDDlmBU0sMU2CK3XTTYiTr4ywE1o7ple/5gfi1a9favv373ERuwSGe2OQE4rO00PTkSZOxERc6J4SGADlLJPELRuooF2Kc8Ns93EW9tn0gxCpTVUZI9VMC44sA0Yp1RhKgbomKT6YP/2lv71gyTzhhiEt6h1Ea8yJfVYa9NRAgVoyxXGUJYV5x3vHJOZ3/mfJytafy6nzSxVRvhfPom/KOc/CETKFisUKOn8oOldnVV1zp3hP7TkcCXrduLetZtFkG0RSaSnnbbbcFO7Xs2hq28AuDNJUlwU4rr3VhR9f8JnUqsXcJpLLeiRBCk4+80GvnOv5AiA3NXIVLaJJnRSw6jGkebjU1BAQBxVFv6AsjHLvnuC4XHZBFjWEKBA3ff2Avi3uNJ9JeTPHiJw/F5CskYwLVGOfX18Mn7j0Jb9iw+4lYPsa6wj2YLuW46EGXF+IbGxvdt2abiSKRT9et16z8YO1qjvRndUohV0nSu9yGHTgSqiurWE+j1mbNvMT7kgeFus7mnnx/P+eNWDVeabjfeuehvzJexMFSVHnNSJN92OmzqD3qkQzHQWoLfYtGKnNlLAe4Esfq56LgHgwJBw4dcEb4gCBJ0nW/Pu7Cefz49T71PZ2L9QmQQl5Kfr6VNe6hX3l1EV/QPS2DH0dERSvG/uOoMTVYlCSAif3qfk1NnUNuTneeG2u9dmP2FBxAoDqKpr4INrJXS1iLwuFxgve0CvoJPp829uNjnAql+vj1PY+mjfjIeSM29O1TgTN0T7KU+8P7wdihUNQAeulwcNvQk2c8cOCkAKFOBgKtFncE19jZGqp7Z7vvF+Y/o/qDymDnGG6N2HAKViAnNvCM9PJBWOsgITWacecLe+UEvh07dowIixSrqoLaapnOCeW+9vqbCFcHHcV2YVLtgtvoa55CchTOAQlPGmNLR5daCvNy69B931n1LtEb220+SxndiJNFKlRoOt+2hb6j4wtGrAcUL5tTC5XrTVSppGmInay2JmAQbQkbBTic+Ox2JFYjChBCtfUBVE1c0ihdXX2UlVlbCE2J4Z6eGZnyuXzOFIpc/2HVxcsTxDLdIwAy5CbUFEkhWYh1a3KAeOnOQuby5cscZW7D0rQByV1qy2OPPuqy7CAooBlnvSxqNy6+0cYygzFX84ixWqkziMqPVFXam2+8ZS8sed4tsXfT4pucX1bDmV9H7f1jZSz4+Nd8PPjnuh+aLgixQZyFvj90rAI0fCQmYgRH6MGKblXE6Grh5igBiy8xhrNGoluDF0sUGAY7okqvsqq0x6s9ypDrO1LL/KRl2+7NW0xr+8tj8n7SmRo/DCZVR4FufIkDQSiKYLMBKFDB4hoS1BkdwKG8RKReGSN+8fOfOVvvbXhoPnXHHdh78Usj+GjsFBX+9tcPOKtaQX6BE6bk3SkvK7etW/ADlxNus3GjHcEgISvUZ+6+y75671egaBYVCTZQdQ5NDj5c8O+fug99VscXhNhTXw49dwVRmzyi+EqKixAIKqFUFHxCU5oZj7RmUzSfKFUAdoxEe3qmIh0cBfKyV1Hv17PiSnhizCOEtKfpuB07ejy0uAs+FqC83E9+NfSa1l7MxB8sWaGfYaSXWe3yE4Nv1w4JRPLeHOfjSt///r/ZrbfeygcsErEeEYqDt0YlSHcfO34cYaqJ9vqy5bZkyZIh96JKFsUrCC4jI90+/ZlP29VXXU0k6DXOFCkdVtzDr5O313jrXzm57mc7u2iIVe+XXXgcoR/f+qdv2guTJ7Jq2htIkCcQLGqtq7bSuhrxW9Ljk6AKzaGJQ6+T1BgBBbtgNVGwYzheAwfg7TIParyWLVZA0/MX3swzgYCc9K9ywbxst+mwSglR9cRJdUK1A8zMl3iu+bgxsBf5aifhQL/yqiuttLiYjEXRHiNX55GqUlxUbPd+9V67h6iIesbfJkykXUR3CmVSqRQpkUnERgaB7Yopc+U79KkeEho9gU21Pltb/Xsq99R0URDrjVAey1KPnDV7FvN/CpmOiCN57357dsmLVr53HwbuE9bUWMXcFUJhEIz6u8WiCRuloZod7kyJAFeeFwFZEqUEGnlfKhmTmghtlWtMzVWjRmrQqQ0833N1LUVeigIlucbBOvOyYMvoqc0gpgZ1RuPu177yDbvx1puseEyJUEolhFQl7T2dFUxBwSwJlBPLZ11y3F33rDsa+cenU49i1cHP3Dq13UfqyLldNFasalGUpEhKUsRDNqazLPyk0wlfXbz4FvycO+013Fsr31zuzG9NbcwLrT3mgrU7YM0xuPxiiFCIYD8AlfYCXDfOgvg+dMZNGzawIGYDC3ilORB6DTpz409t8NkA4SZ9MX7K8uRioUHMxxk3F91wA46BdHv7zZX2Q1jvpClTEIY+hJttikIGHPBD89Xx+ddoGDkX8s6p7TrT+UWh2OExwOtp8v4AG35ZTIvVRuPSmFe64CqbTaTBbbctto14O17AWXCMWeHyf3bwaZSuFsJFRbWyvGBLjY1HGAG5+u57PJOqDu7bQ9SGwl280gTWC0lnBHpINmKDbhFrKj8XH/BlTG/RLIHq0mJHxbIyRWPbVR30WihSVZeQrHR6UdNI5Z2tAIXWnnc6W8VD7+nYsVNRcFD/EdDSUpL5Lvt8mzZtit1Ez9+yZYu98MILBKPvJ2CszW1it22MyX188FAssQVWF0kltSzDkSNH3Ad0Iy/QAuUj1W+rv/dQQUfRGA+1qo6OFYJYfQFa5j4NLemssiabsKRh6aTqsurCSvr18veuDJ+fG9FeDi6bk368614tdRz6nI698lSLk+/5mej6BSFWL4YW4md08l7FSt8LPuvVj3NfV8Rrgz1ZW2lJiS1ceC0mw/12tLra+SN37dlth1HyBUBZqyQ4VVZVEdnfwnTH1XbNgmuYc4PP9DxqElqvYDXcJX8889sSIbUGxMo06OzFqivWouCw6RbUmjFrpi1/ZSlhPHU2jg4gCVnvuxGWYyWda9OZNj9/73poDbhJ8q/4z3lXT//13j/5+TMh1c/zorDi06tyflekN2agxKfPu9S9ICN6A9Kv/KGeKa7ffSv+USIUHn3oYduwbj221XbnyD6/Es79lGMoQEOUqiQEKynoTclxGmKTJhLE9xrqy+Ytm23OvHluaVz3QPDHB75/LRRZocf+fe3PdD30mdBj/3kfeaH3Tj3+X0WsLFWibDVRI6dWD01CeFIDPPCyIgCI3ErIiHS840eP2UFcZtmEk3h2v/Np4qlN9s+9cVJlKRchVMgV+9femUSDrFnhMipTz7z51lsYFO4eEbF+zv7eR8T/39y5tDYVRHF8FEoRFLRWkIrStFH72BgQLbXYFMGPYz+IfgtRKNSVG4kL40pa8EEjiKuSxkVru9A+fIAL/78zOebemwSSamIn5M69c+dxZs7MmZnzmOvPvfS9Hl6Gt58/99wHAP+73FEU1xy+uI/2HhJHMAd1YUN6UXpAu3t7QvI7SV+0DfpDyCxpl5d6gZ5KiPSRyh4WxKKfzKhlxILsc/qOPOGrohpQlaPgqEW7f18R2w4IGgznvscDuTR0fjwfisWikWEUrL/KDJHlS6NapO7cef7ZFI5E4ICpzzMIZzXM/pnwTTH/q9WNVFLiJV36Kfnm39w7/O57rv6M31fEOgDd+JhUDGlFitnEgWSXayLLfJsmOpAbO0U3eSbjxhziiGWxFjX3xRSRTBVNCqwLkLV+kcKdIzBuu5K59Oe+fW1BZdr91zk2DUr6yUGFjXhCOkVYpCHu2tbZU7Watj1T0yKRdU5POmnHT7FLiKjrBt1klN3RYBjRBxXXNZevrqyIJP8Ib3RSG1sdSPOwGPUw9h0+Cqvv6Dou97ARI7zZ1EDi0HiNVJ+4hPDI7WcuT+5ZeAr3Wxfqbw/nR9gEk2Sh6NrelQX444ePwotyOdyam5Ps9LQyjhBFyNO1yZbqsAMr8X0vSrwBCdKP65yeQWlGXp24Esrll/oGzwedtPbNrOMQt3Fkz7wY9nmJ4XCWn1W8F7W3IlIXyouwp4JT9SAGZBhlQIucjNoOTDL2xknG9/t26fx9t741flw2S0Q2ZCfG/dTc90oHgWxJuABiWS3jTMPRquhQpqHxUIcBpEJafV5n/2pmlxKIMyo/i3m/qSPlZ2dnzb5mRGqmN6RDXdB+9pT24OQXS06X4/n3wqfMbGk8m2ix/sbeiwegERujcvX/YYCi0F454BpUg09OTohfOx12tndC5X1Fh1deNsYH5cYRyFWdzxYzDaTxvsllFjyoyzLe2drwsQUWbcM6c2Jx8Z7sV6c0knWmueZ6FlLZTtKUd58C6JwglTrjuLP66yrdgOgI8H89qGvPK9wLf0DcobHceJjReYNb0jl6KjPO9aos5vZl2ae5zysHGTIdJoXEX+tqwPKkA7BAYh6F5JraqaJjdsJqmLl9dHTUzDLOywAapNJelrZ1tn0LBanxnylSC8BjYhDY4olGsdlJGIE0eSORBCQdCSe4zmiem5m5GZZkyVZ6VjINv9xYLlyXKeIF7G6kHMbIGj6r01ukAjoo4Td7UGFQCLHKGavyl1a839UhOEAEnSRUVVASP9DpL+gvvcXeRsjekICCD/XSARqdlXsfG523zN+0Y3NaQYBqr9okQhLZofb9PumIhcpH6SoLtiQiOwe13zF18qqQdq1QCLeL8+HJ0rLZxpyU/PR5qSTVFB22K/LJXHlJJhPYokI6EWSzemak0UCYfqLyuS/eM+xJPsRbq32STe6uMSX2xARBqL8vJC/cWZAGv+ZxNVDs/DEPO/eiy+o3I6fzDEjbwBGo5LlOj9TpJLQWldLOXqzYg9drYfnB/fAbBE0XYpSbHS8AAAAASUVORK5CYII=;" parent="1" vertex="1">
                    <mxGeometry x="1300" y="360" width="59.49" height="60" as="geometry"/>
                </mxCell>
                <mxCell id="32" style="edgeStyle=orthogonalEdgeStyle;rounded=0;orthogonalLoop=1;jettySize=auto;html=1;entryX=0;entryY=0.5;entryDx=0;entryDy=0;" parent="1" source="18" target="30" edge="1">
                    <mxGeometry relative="1" as="geometry">
                        <Array as="points">
                            <mxPoint x="1075" y="270"/>
                            <mxPoint x="1170" y="270"/>
                            <mxPoint x="1170" y="420"/>
                        </Array>
                    </mxGeometry>
                </mxCell>
                <mxCell id="33" value="MongoDB Binary" style="text;html=1;strokeColor=none;fillColor=none;align=center;verticalAlign=middle;whiteSpace=wrap;rounded=0;dashed=1;strokeWidth=3;" parent="1" vertex="1">
                    <mxGeometry x="1190" y="210" width="60" height="30" as="geometry"/>
                </mxCell>
                <mxCell id="34" value="Config File" style="text;html=1;strokeColor=none;fillColor=none;align=center;verticalAlign=middle;whiteSpace=wrap;rounded=0;dashed=1;strokeWidth=3;" parent="1" vertex="1">
                    <mxGeometry x="1260" y="210" width="60" height="30" as="geometry"/>
                </mxCell>
                <mxCell id="35" value="Private subnet (DB Subnet)&amp;nbsp; &amp;nbsp; &amp;nbsp;ca-central-1b" style="points=[[0,0],[0.25,0],[0.5,0],[0.75,0],[1,0],[1,0.25],[1,0.5],[1,0.75],[1,1],[0.75,1],[0.5,1],[0.25,1],[0,1],[0,0.75],[0,0.5],[0,0.25]];outlineConnect=0;gradientColor=none;html=1;whiteSpace=wrap;fontSize=12;fontStyle=0;container=1;pointerEvents=0;collapsible=0;recursiveResize=0;shape=mxgraph.aws4.group;grIcon=mxgraph.aws4.group_security_group;grStroke=0;strokeColor=#248814;fillColor=#E9F3E6;verticalAlign=top;align=left;spacingLeft=30;fontColor=#248814;dashed=0;" parent="1" vertex="1">
                    <mxGeometry x="580" y="420" width="200" height="230" as="geometry"/>
                </mxCell>
                <mxCell id="36" value="Mongodb-2 secondary" style="outlineConnect=0;dashed=0;verticalLabelPosition=bottom;verticalAlign=top;align=center;html=1;shape=mxgraph.aws3.ec2;fillColor=#F58534;gradientColor=none;" parent="1" vertex="1">
                    <mxGeometry x="650" y="510" width="40" height="40" as="geometry"/>
                </mxCell>
                <mxCell id="37" value="EBS - data volume" style="outlineConnect=0;dashed=0;verticalLabelPosition=bottom;verticalAlign=top;align=center;html=1;shape=mxgraph.aws3.volume;fillColor=#E05243;gradientColor=none;" parent="1" vertex="1">
                    <mxGeometry x="650" y="590" width="40" height="40" as="geometry"/>
                </mxCell>
                <mxCell id="38" value="Instance Profile" style="outlineConnect=0;dashed=0;verticalLabelPosition=bottom;verticalAlign=top;align=center;html=1;shape=mxgraph.aws3.iam;fillColor=#759C3E;gradientColor=none;" parent="1" vertex="1">
                    <mxGeometry x="1035" y="500" width="30" height="40" as="geometry"/>
                </mxCell>
                <mxCell id="39" style="edgeStyle=orthogonalEdgeStyle;rounded=0;orthogonalLoop=1;jettySize=auto;html=1;entryX=0.5;entryY=0;entryDx=0;entryDy=0;entryPerimeter=0;" parent="1" source="9" target="36" edge="1">
                    <mxGeometry relative="1" as="geometry">
                        <Array as="points">
                            <mxPoint x="460" y="340"/>
                            <mxPoint x="670" y="340"/>
                        </Array>
                    </mxGeometry>
                </mxCell>
                <mxCell id="40" value="port 22" style="edgeLabel;html=1;align=center;verticalAlign=middle;resizable=0;points=[];" parent="39" connectable="0" vertex="1">
                    <mxGeometry x="-0.4133" y="1" relative="1" as="geometry">
                        <mxPoint as="offset"/>
                    </mxGeometry>
                </mxCell>
            </root>
        </mxGraphModel>
    </diagram>
</mxfile>